<svg width="25" height="25" viewBox="0 0 25 25" fill="none" xmlns="http://www.w3.org/2000/svg">
<path d="M4.68 21.84C4.75971 21.8496 4.84029 21.8496 4.92 21.84L8.92 20.84C9.09744 20.7978 9.25997 20.7079 9.39 20.58L21.68 8.25C22.0525 7.87528 22.2616 7.36837 22.2616 6.84C22.2616 6.31163 22.0525 5.80473 21.68 5.43L20.1 3.84C19.9143 3.65405 19.6937 3.50653 19.4509 3.40588C19.2081 3.30523 18.9478 3.25343 18.685 3.25343C18.4222 3.25343 18.1619 3.30523 17.9191 3.40588C17.6763 3.50653 17.4557 3.65405 17.27 3.84L4.98 16.13C4.85079 16.2606 4.75774 16.4226 4.71 16.6L3.71 20.6C3.67406 20.7294 3.66454 20.8647 3.68203 20.9978C3.69951 21.131 3.74363 21.2592 3.81176 21.375C3.87989 21.4907 3.97063 21.5915 4.07856 21.6714C4.1865 21.7513 4.30942 21.8086 4.44 21.84C4.51971 21.8496 4.60029 21.8496 4.68 21.84ZM18.68 5.25L20.27 6.84L18.68 8.43L17.1 6.84L18.68 5.25ZM6.59 17.35L15.68 8.25L17.27 9.84L8.17 18.94L6.06 19.46L6.59 17.35Z" fill="black"/>
</svg>
