<svg width="24" height="24" viewBox="0 0 24 24" fill="none" xmlns="http://www.w3.org/2000/svg">
<path d="M20.947 8.305C20.9369 7.54763 20.7951 6.79778 20.528 6.089C20.2964 5.49115 19.9425 4.9482 19.4892 4.49483C19.0358 4.04147 18.4929 3.68765 17.895 3.456C17.1953 3.19336 16.4562 3.05134 15.709 3.036C14.747 2.993 14.442 2.981 12 2.981C9.558 2.981 9.245 2.981 8.29 3.036C7.54316 3.05146 6.80435 3.19347 6.105 3.456C5.50706 3.68749 4.96402 4.04125 4.51063 4.49464C4.05725 4.94802 3.70349 5.49106 3.472 6.089C3.20883 6.78814 3.06712 7.52711 3.053 8.274C3.01 9.237 2.997 9.542 2.997 11.984C2.997 14.426 2.997 14.738 3.053 15.694C3.068 16.442 3.209 17.18 3.472 17.881C3.70388 18.4788 4.0579 19.0216 4.51144 19.4748C4.96498 19.928 5.50807 20.2816 6.106 20.513C6.80344 20.7862 7.54237 20.9384 8.291 20.963C9.254 21.006 9.559 21.019 12.001 21.019C14.443 21.019 14.756 21.019 15.711 20.963C16.4582 20.9483 17.1974 20.8066 17.897 20.544C18.4947 20.3121 19.0375 19.9582 19.4908 19.5048C19.9442 19.0515 20.2981 18.5087 20.53 17.911C20.793 17.211 20.934 16.473 20.949 15.724C20.992 14.762 21.005 14.457 21.005 12.014C21.003 9.572 21.003 9.262 20.947 8.305V8.305ZM11.994 16.602C9.44 16.602 7.371 14.533 7.371 11.979C7.371 9.425 9.44 7.356 11.994 7.356C13.2201 7.356 14.396 7.84307 15.263 8.71005C16.1299 9.57703 16.617 10.7529 16.617 11.979C16.617 13.2051 16.1299 14.381 15.263 15.248C14.396 16.1149 13.2201 16.602 11.994 16.602V16.602ZM16.801 8.263C16.6594 8.26313 16.5192 8.23534 16.3883 8.18121C16.2575 8.12709 16.1386 8.04769 16.0384 7.94756C15.9383 7.84743 15.8589 7.72854 15.8048 7.59769C15.7507 7.46684 15.7229 7.3266 15.723 7.185C15.723 7.0435 15.7509 6.90339 15.805 6.77266C15.8592 6.64193 15.9385 6.52315 16.0386 6.4231C16.1387 6.32304 16.2574 6.24367 16.3882 6.18952C16.5189 6.13537 16.659 6.1075 16.8005 6.1075C16.942 6.1075 17.0821 6.13537 17.2128 6.18952C17.3436 6.24367 17.4624 6.32304 17.5624 6.4231C17.6625 6.52315 17.7418 6.64193 17.796 6.77266C17.8501 6.90339 17.878 7.0435 17.878 7.185C17.878 7.781 17.396 8.263 16.801 8.263Z" fill="white"/>
<path d="M11.994 14.982C13.6525 14.982 14.997 13.6375 14.997 11.979C14.997 10.3205 13.6525 8.976 11.994 8.976C10.3355 8.976 8.991 10.3205 8.991 11.979C8.991 13.6375 10.3355 14.982 11.994 14.982Z" fill="white"/>
</svg>
