<svg width="95" height="66" viewBox="0 0 95 66" fill="none" xmlns="http://www.w3.org/2000/svg">
<path d="M92.3099 10.3067C91.2235 6.24766 88.0334 3.05786 83.9744 1.97131C76.625 5.90086e-07 47.1405 0 47.1405 0C47.1405 0 17.6564 5.90086e-07 10.3067 1.97131C6.24766 3.05786 3.05786 6.24766 1.97131 10.3067C5.90086e-07 17.6564 0 33 0 33C0 33 5.90086e-07 48.3437 1.97131 55.6934C3.05786 59.7524 6.24766 62.9422 10.3067 64.0286C17.6564 66 47.1405 66 47.1405 66C47.1405 66 76.625 66 83.9744 64.0286C88.0334 62.9422 91.2235 59.7524 92.3099 55.6934C94.2813 48.3437 94.2813 33 94.2813 33C94.2813 33 94.2734 17.6564 92.3099 10.3067Z" fill="#FE7E02"/>
<path d="M37.7035 47.1418L62.1974 33.0013L37.7035 18.8606V47.1418Z" fill="white"/>
</svg>
