<svg width="324" height="66" viewBox="0 0 324 66" fill="none" xmlns="http://www.w3.org/2000/svg">
<path d="M92.3099 10.3067C91.2235 6.24766 88.0334 3.05786 83.9744 1.97131C76.625 5.90086e-07 47.1405 0 47.1405 0C47.1405 0 17.6564 5.90086e-07 10.3067 1.97131C6.24766 3.05786 3.05786 6.24766 1.97131 10.3067C5.90086e-07 17.6564 0 33 0 33C0 33 5.90086e-07 48.3437 1.97131 55.6934C3.05786 59.7524 6.24766 62.9422 10.3067 64.0286C17.6564 66 47.1405 66 47.1405 66C47.1405 66 76.625 66 83.9744 64.0286C88.0334 62.9422 91.2235 59.7524 92.3099 55.6934C94.2813 48.3437 94.2813 33 94.2813 33C94.2813 33 94.2734 17.6564 92.3099 10.3067Z" fill="#FE7E02"/>
<path d="M37.7035 47.1418L62.1974 33.0013L37.7035 18.8606V47.1418Z" fill="white"/>
<path d="M106.752 58V6.8H115.04V50.704H127.04V58H106.752ZM138.018 58.48C135.372 58.48 133.42 57.8187 132.161 56.496C130.924 55.152 130.167 52.912 129.89 49.776C129.868 49.3493 129.858 48.8587 129.858 48.304C129.858 47.7493 129.868 47.2587 129.89 46.832C130.018 45.1467 130.38 43.696 130.978 42.48C131.596 41.264 132.546 40.1867 133.826 39.248C135.106 38.288 136.802 37.392 138.914 36.56C140.023 36.0907 141.1 35.696 142.146 35.376C143.191 35.0347 144.279 34.704 145.41 34.384V28.624C145.41 27.5147 145.186 26.672 144.738 26.096C144.29 25.52 143.426 25.232 142.146 25.232C141.058 25.232 140.279 25.4667 139.81 25.936C139.362 26.4053 139.106 27.216 139.042 28.368C139.02 28.7307 138.999 29.2747 138.978 30C138.978 30.704 138.978 31.4293 138.978 32.176C138.999 32.9227 139.02 33.52 139.042 33.968H131.01C130.988 33.584 130.967 32.9013 130.946 31.92C130.924 30.9173 130.924 30.0427 130.946 29.296C131.052 26.9067 131.479 24.9547 132.226 23.44C132.972 21.9253 134.156 20.816 135.778 20.112C137.42 19.3867 139.618 19.024 142.37 19.024C145.25 19.024 147.5 19.4187 149.122 20.208C150.764 20.9973 151.916 22.2453 152.578 23.952C153.26 25.6373 153.602 27.8453 153.602 30.576L153.57 58H145.314V54.032H144.226C143.543 55.5467 142.743 56.6667 141.826 57.392C140.908 58.1173 139.639 58.48 138.018 58.48ZM141.378 52.528C142.274 52.528 143.063 52.272 143.746 51.76C144.428 51.248 144.972 50.5547 145.378 49.68V39.856C144.61 40.048 143.863 40.2827 143.138 40.56C142.412 40.816 141.708 41.136 141.026 41.52C139.895 42.1173 139.127 42.8747 138.722 43.792C138.316 44.688 138.082 45.7013 138.018 46.832C138.018 47.2373 138.018 47.632 138.018 48.016C138.018 48.3787 138.028 48.7413 138.05 49.104C138.156 50.2133 138.487 51.0667 139.042 51.664C139.596 52.24 140.375 52.528 141.378 52.528ZM175.225 58.576C173.347 58.576 171.939 58.192 171.001 57.424C170.062 56.6347 169.177 55.504 168.345 54.032H167.417V58H159.161V6.8H167.417V23.568H168.889C169.721 22.096 170.606 20.976 171.545 20.208C172.483 19.4187 173.891 19.024 175.769 19.024C178.265 19.024 180.142 19.792 181.401 21.328C182.681 22.864 183.406 25.424 183.577 29.008C183.619 30.2667 183.651 31.76 183.673 33.488C183.694 35.216 183.705 37.008 183.705 38.864C183.705 40.72 183.694 42.5013 183.673 44.208C183.651 45.9147 183.619 47.3653 183.577 48.56C183.406 52.144 182.595 54.7147 181.145 56.272C179.715 57.808 177.742 58.576 175.225 58.576ZM172.281 52.528C173.326 52.528 174.073 52.272 174.521 51.76C174.99 51.2267 175.246 50.3947 175.289 49.264C175.374 47.856 175.438 46.2773 175.481 44.528C175.523 42.7787 175.545 40.9653 175.545 39.088C175.545 37.1893 175.523 35.3227 175.481 33.488C175.438 31.632 175.374 29.9147 175.289 28.336C175.246 27.2053 174.99 26.384 174.521 25.872C174.073 25.3387 173.326 25.072 172.281 25.072C171.342 25.072 170.393 25.3387 169.433 25.872C168.473 26.4053 167.801 27.152 167.417 28.112V49.488C167.801 50.448 168.473 51.1947 169.433 51.728C170.393 52.2613 171.342 52.528 172.281 52.528ZM200.176 58.576C196.187 58.576 193.275 57.7653 191.44 56.144C189.627 54.5227 188.613 51.8453 188.4 48.112C188.357 47.1307 188.325 45.8293 188.304 44.208C188.283 42.5653 188.272 40.816 188.272 38.96C188.272 37.104 188.283 35.344 188.304 33.68C188.325 31.9947 188.357 30.64 188.4 29.616C188.656 25.7973 189.68 23.0773 191.472 21.456C193.285 19.8347 196.155 19.024 200.08 19.024C203.984 19.024 206.811 19.824 208.56 21.424C210.331 23.0027 211.301 25.6267 211.472 29.296C211.493 29.808 211.504 30.672 211.504 31.888C211.525 33.0827 211.525 34.4267 211.504 35.92C211.504 37.4133 211.472 38.8427 211.408 40.208H196.56C196.56 41.68 196.571 43.152 196.592 44.624C196.635 46.0747 196.667 47.5253 196.688 48.976C196.731 50.2133 197.019 51.088 197.552 51.6C198.085 52.112 198.96 52.368 200.176 52.368C201.285 52.368 202.075 52.112 202.544 51.6C203.035 51.088 203.312 50.2133 203.376 48.976C203.419 48.3787 203.44 47.6107 203.44 46.672C203.44 45.712 203.419 44.656 203.376 43.504H211.408C211.451 43.9093 211.483 44.592 211.504 45.552C211.525 46.512 211.515 47.3653 211.472 48.112C211.301 51.8453 210.341 54.5227 208.592 56.144C206.864 57.7653 204.059 58.576 200.176 58.576ZM196.56 34.448H203.44C203.44 33.5307 203.44 32.656 203.44 31.824C203.44 30.9707 203.429 30.2453 203.408 29.648C203.408 29.0293 203.397 28.6027 203.376 28.368C203.312 27.2587 203.024 26.4587 202.512 25.968C202.021 25.4773 201.211 25.232 200.08 25.232C198.885 25.232 198.032 25.4773 197.52 25.968C197.008 26.4587 196.731 27.2587 196.688 28.368C196.667 29.4133 196.645 30.4373 196.624 31.44C196.603 32.4427 196.581 33.4453 196.56 34.448ZM221.66 58V14.096H213.884V6.8H237.724V14.096H229.916V58H221.66ZM246.813 58.576C244.338 58.576 242.365 57.808 240.893 56.272C239.442 54.7147 238.717 52.144 238.717 48.56V19.6H246.973V49.264C246.973 50.3947 247.218 51.2267 247.709 51.76C248.221 52.272 248.989 52.528 250.013 52.528C250.93 52.528 251.869 52.2613 252.829 51.728C253.789 51.1733 254.461 50.4267 254.845 49.488V19.6H263.133V58H254.845V54.032H253.693C252.818 55.6533 251.837 56.816 250.749 57.52C249.661 58.224 248.349 58.576 246.813 58.576ZM284.85 58.576C282.972 58.576 281.564 58.192 280.626 57.424C279.687 56.6347 278.802 55.504 277.97 54.032H277.042V58H268.786V6.8H277.042V23.568H278.514C279.346 22.096 280.231 20.976 281.17 20.208C282.108 19.4187 283.516 19.024 285.394 19.024C287.89 19.024 289.767 19.792 291.026 21.328C292.306 22.864 293.031 25.424 293.202 29.008C293.244 30.2667 293.276 31.76 293.298 33.488C293.319 35.216 293.33 37.008 293.33 38.864C293.33 40.72 293.319 42.5013 293.298 44.208C293.276 45.9147 293.244 47.3653 293.202 48.56C293.031 52.144 292.22 54.7147 290.77 56.272C289.34 57.808 287.367 58.576 284.85 58.576ZM281.906 52.528C282.951 52.528 283.698 52.272 284.146 51.76C284.615 51.2267 284.871 50.3947 284.914 49.264C284.999 47.856 285.063 46.2773 285.106 44.528C285.148 42.7787 285.17 40.9653 285.17 39.088C285.17 37.1893 285.148 35.3227 285.106 33.488C285.063 31.632 284.999 29.9147 284.914 28.336C284.871 27.2053 284.615 26.384 284.146 25.872C283.698 25.3387 282.951 25.072 281.906 25.072C280.967 25.072 280.018 25.3387 279.058 25.872C278.098 26.4053 277.426 27.152 277.042 28.112V49.488C277.426 50.448 278.098 51.1947 279.058 51.728C280.018 52.2613 280.967 52.528 281.906 52.528ZM309.801 58.576C305.812 58.576 302.9 57.7653 301.065 56.144C299.252 54.5227 298.238 51.8453 298.025 48.112C297.982 47.1307 297.95 45.8293 297.929 44.208C297.908 42.5653 297.897 40.816 297.897 38.96C297.897 37.104 297.908 35.344 297.929 33.68C297.95 31.9947 297.982 30.64 298.025 29.616C298.281 25.7973 299.305 23.0773 301.097 21.456C302.91 19.8347 305.78 19.024 309.705 19.024C313.609 19.024 316.436 19.824 318.185 21.424C319.956 23.0027 320.926 25.6267 321.097 29.296C321.118 29.808 321.129 30.672 321.129 31.888C321.15 33.0827 321.15 34.4267 321.129 35.92C321.129 37.4133 321.097 38.8427 321.033 40.208H306.185C306.185 41.68 306.196 43.152 306.217 44.624C306.26 46.0747 306.292 47.5253 306.313 48.976C306.356 50.2133 306.644 51.088 307.177 51.6C307.71 52.112 308.585 52.368 309.801 52.368C310.91 52.368 311.7 52.112 312.169 51.6C312.66 51.088 312.937 50.2133 313.001 48.976C313.044 48.3787 313.065 47.6107 313.065 46.672C313.065 45.712 313.044 44.656 313.001 43.504H321.033C321.076 43.9093 321.108 44.592 321.129 45.552C321.15 46.512 321.14 47.3653 321.097 48.112C320.926 51.8453 319.966 54.5227 318.217 56.144C316.489 57.7653 313.684 58.576 309.801 58.576ZM306.185 34.448H313.065C313.065 33.5307 313.065 32.656 313.065 31.824C313.065 30.9707 313.054 30.2453 313.033 29.648C313.033 29.0293 313.022 28.6027 313.001 28.368C312.937 27.2587 312.649 26.4587 312.137 25.968C311.646 25.4773 310.836 25.232 309.705 25.232C308.51 25.232 307.657 25.4773 307.145 25.968C306.633 26.4587 306.356 27.2587 306.313 28.368C306.292 29.4133 306.27 30.4373 306.249 31.44C306.228 32.4427 306.206 33.4453 306.185 34.448Z" fill="black"/>
</svg>
