<svg xmlns="http://www.w3.org/2000/svg" viewBox="0 0 24 24" preserveAspectRatio="xMidYMid meet" focusable="false" class="style-scope yt-icon" style="pointer-events: none; display: block; width: 100%; height: 100%;"><g class="style-scope yt-icon"><path d="M7.5,12c0,0.83-0.67,1.5-1.5,1.5S4.5,12.83,4.5,12s0.67-1.5,1.5-1.5S7.5,11.17,7.5,12z M12,10.5c-0.83,0-1.5,0.67-1.5,1.5 s0.67,1.5,1.5,1.5s1.5-0.67,1.5-1.5S12.83,10.5,12,10.5z M18,10.5c-0.83,0-1.5,0.67-1.5,1.5s0.67,1.5,1.5,1.5s1.5-0.67,1.5-1.5 S18.83,10.5,18,10.5z" class="style-scope yt-icon"/></g></svg>