<svg xmlns="http://www.w3.org/2000/svg" viewBox="0 0 24 24" preserveAspectRatio="xMidYMid meet" focusable="false" class="style-scope yt-icon" style="pointer-events: none; display: block; width: 100%; height: 100%;"><g class="style-scope yt-icon"><path d="M16.5,3C19.02,3,21,5.19,21,7.99c0,3.7-3.28,6.94-8.25,11.86L12,20.59l-0.74-0.73l-0.04-0.04C6.27,14.92,3,11.69,3,7.99 C3,5.19,4.98,3,7.5,3c1.4,0,2.79,0.71,3.71,1.89L12,5.9l0.79-1.01C13.71,3.71,15.1,3,16.5,3 M16.5,2c-1.74,0-3.41,0.88-4.5,2.28 C10.91,2.88,9.24,2,7.5,2C4.42,2,2,4.64,2,7.99c0,4.12,3.4,7.48,8.55,12.58L12,22l1.45-1.44C18.6,15.47,22,12.11,22,7.99 C22,4.64,19.58,2,16.5,2L16.5,2z M11.33,10.86c0.2,0.14,0.53,0.26,1,0.36c0.47,0.1,0.86,0.22,1.18,0.35 c0.99,0.4,1.49,1.09,1.49,2.07c0,0.7-0.28,1.27-0.83,1.71c-0.33,0.26-0.73,0.43-1.17,0.54V17h-2v-1.16 c-0.18-0.05-0.37-0.1-0.53-0.19c-0.46-0.23-0.92-0.55-1.18-0.95C9.15,14.48,9.06,14.24,9,14h2c0.05,0.09,0.07,0.18,0.15,0.25 c0.23,0.19,0.54,0.29,0.92,0.29c0.36,0,0.63-0.07,0.82-0.22s0.28-0.35,0.28-0.59c0-0.25-0.11-0.45-0.34-0.6s-0.59-0.27-1.1-0.39 c-1.67-0.39-2.51-1.16-2.51-2.34c0-0.68,0.26-1.26,0.78-1.71c0.28-0.25,0.62-0.43,1-0.54V7h2v1.12c0.46,0.11,0.85,0.29,1.18,0.57 C14.59,9.05,14.9,9.48,15,10h-2c-0.04-0.09-0.1-0.17-0.16-0.24c-0.17-0.19-0.44-0.29-0.81-0.29c-0.32,0-0.56,0.08-0.74,0.24 c-0.17,0.16-0.26,0.36-0.26,0.6C11.03,10.53,11.13,10.72,11.33,10.86z" class="style-scope yt-icon"/></g></svg>