<svg width="200" height="175" viewBox="0 0 200 175" fill="none" xmlns="http://www.w3.org/2000/svg">
<g clip-path="url(#clip0_30_2)">
<rect x="1" width="200" height="174" fill="#141414"/>
<path d="M180.328 90.6735C180.354 112.233 172.022 132.963 157.083 148.506C156.183 149.449 155.258 150.369 154.309 151.267C152.863 152.643 151.368 153.966 149.825 155.235C135.388 167.132 117.363 173.816 98.6621 174.212C98.0386 174.226 97.4131 174.233 96.7855 174.233C81.8703 174.233 63.1101 166.265 46.0857 155.235C44.6771 154.322 43.2812 153.388 41.8977 152.434C41.251 151.991 40.6076 151.543 39.9672 151.088C33.401 146.451 27.1685 141.359 21.3154 135.848C17.4832 132.251 13.8897 128.408 10.5576 124.343C-2.52358 108.204 -5.40881 93.663 13.2406 90.6735C15.4486 90.3209 17.5915 89.9435 19.6694 89.5427C22.6793 88.9636 25.5599 88.3389 28.311 87.6682C32.0169 86.7674 35.4986 85.7902 38.7562 84.7379C39.8519 84.3846 40.9227 84.0251 41.9683 83.6581C57.4267 78.2279 67.7731 71.1463 74.8159 63.4626C76.0103 62.162 77.1117 60.8458 78.1193 59.5138C79.6614 57.4865 81.0628 55.3553 82.3124 53.1356C84.0366 50.0513 85.4855 46.8206 86.6414 43.4811L86.7048 43.2977C92.3083 27.131 90.6035 12.1355 96.7855 7.11662C123.211 -14.3395 156.11 16.216 171.552 52.2489C172.33 54.0645 173.063 55.8912 173.748 57.7287C174.057 58.5495 174.354 59.372 174.639 60.1959C175.392 62.3431 176.074 64.4959 176.688 66.6541C176.923 67.4772 177.147 68.2996 177.36 69.121C177.588 70.008 177.807 70.8922 178.009 71.7765C179.512 78.2513 180.328 84.6367 180.328 90.6735Z" fill="#3F3D56"/>
<path d="M98.6621 174.212C98.0386 174.226 97.4131 174.233 96.7855 174.233C81.8703 174.233 63.1102 166.265 46.0857 155.235C44.6771 154.322 43.2812 153.389 41.8977 152.434L43.1111 145.049L79.8434 140.171L98.2786 154.271L98.6621 174.212Z" fill="#2F2E41"/>
<path d="M100.43 42.3453H95.1959C95.0338 42.3453 94.8779 42.4098 94.7634 42.5244C94.649 42.639 94.5841 42.7945 94.5841 42.9567V48.1943C94.5841 48.2745 94.6 48.3538 94.631 48.4279C94.6621 48.5019 94.7069 48.5691 94.7634 48.6257C94.8207 48.6822 94.8876 48.7271 94.9621 48.7576C95.0359 48.7881 95.1159 48.8037 95.1959 48.8035H100.43C100.592 48.8035 100.747 48.7394 100.861 48.6252C100.977 48.511 101.041 48.3561 101.041 48.1943V42.9567C101.041 42.7947 100.977 42.6394 100.862 42.5249C100.748 42.4103 100.592 42.3457 100.43 42.3453Z" fill="white"/>
<path d="M100.43 51.2705H95.1959C95.0338 51.2706 94.8779 51.3351 94.7634 51.4497C94.649 51.5644 94.5841 51.7199 94.5841 51.8821V57.1197C94.5841 57.1998 94.6 57.2792 94.631 57.3532C94.6621 57.4272 94.7069 57.4944 94.7634 57.551C94.8207 57.6076 94.8876 57.6524 94.9621 57.6829C95.0359 57.7134 95.1159 57.729 95.1959 57.7288H100.43C100.592 57.7289 100.747 57.6648 100.861 57.5506C100.977 57.4364 101.041 57.2814 101.041 57.1197V51.8821C101.041 51.72 100.977 51.5647 100.862 51.4501C100.748 51.3356 100.592 51.271 100.43 51.2705Z" fill="#E6E6E6"/>
<path d="M100.43 60.1959H95.1959C95.0338 60.196 94.8779 60.2604 94.7634 60.3751C94.649 60.4897 94.5841 60.6452 94.5841 60.8074V66.0426C94.5841 66.123 94.6 66.2026 94.6303 66.2768C94.6614 66.3511 94.7062 66.4186 94.7628 66.4754C94.82 66.5322 94.8876 66.5772 94.9614 66.6079C95.0359 66.6385 95.1152 66.6542 95.1959 66.6541H100.43C100.592 66.654 100.748 66.5896 100.862 66.475C100.977 66.3603 101.041 66.2048 101.041 66.0426V60.8074C101.041 60.6453 100.977 60.4901 100.862 60.3755C100.748 60.2609 100.592 60.1964 100.43 60.1959Z" fill="#E6E6E6"/>
<path d="M101.032 69.6244C101.006 69.4839 100.932 69.3565 100.821 69.2642C100.712 69.1726 100.573 69.1217 100.43 69.121H95.1959C95.0338 69.121 94.8779 69.1857 94.7634 69.3007C94.649 69.415 94.5841 69.5707 94.5841 69.7325V74.9678C94.5841 75.0483 94.6 75.1282 94.6303 75.2019C94.6614 75.2763 94.7062 75.3438 94.7628 75.4009C94.82 75.4574 94.8876 75.5029 94.9614 75.5332C95.0359 75.5642 95.1152 75.5793 95.1959 75.5793H100.43C100.592 75.5793 100.748 75.5153 100.862 75.4002C100.977 75.2859 101.041 75.1303 101.041 74.9678V69.7325C101.042 69.6967 101.039 69.6602 101.032 69.6244Z" fill="#E6E6E6"/>
<path d="M100.668 78.0936C100.592 78.0626 100.512 78.0461 100.43 78.0468H95.1959C95.1152 78.0461 95.0359 78.062 94.9614 78.0929C94.8876 78.1232 94.82 78.1687 94.7634 78.2252C94.7062 78.2823 94.6614 78.3498 94.6303 78.4235C94.6 78.4979 94.5841 78.5778 94.5841 78.6583V83.8936C94.5841 83.9735 94.5993 84.0534 94.6303 84.1277C94.6607 84.2021 94.7055 84.2696 94.7628 84.3268C94.8193 84.3832 94.8869 84.4287 94.9614 84.459C95.0359 84.4893 95.1152 84.5051 95.1959 84.5044H100.43C100.592 84.5044 100.748 84.4404 100.862 84.3254C100.977 84.2111 101.041 84.0554 101.041 83.8936V78.6583C101.041 78.5378 101.006 78.4201 100.939 78.3195C100.872 78.2197 100.778 78.1405 100.668 78.0936Z" fill="#E6E6E6"/>
<path d="M111.426 42.3453H106.191C106.029 42.3453 105.874 42.4098 105.759 42.5244C105.644 42.639 105.58 42.7945 105.58 42.9567V48.1943C105.58 48.2745 105.596 48.3538 105.626 48.4279C105.657 48.5019 105.702 48.5691 105.759 48.6257C105.816 48.6822 105.883 48.7271 105.957 48.7576C106.032 48.7881 106.111 48.8037 106.191 48.8035H111.426C111.587 48.8035 111.743 48.7394 111.857 48.6252C111.972 48.511 112.037 48.3561 112.037 48.1943V42.9567C112.037 42.7947 111.972 42.6394 111.857 42.5249C111.743 42.4103 111.588 42.3457 111.426 42.3453Z" fill="#E6E6E6"/>
<path d="M111.426 51.2705H106.191C106.029 51.2706 105.874 51.3351 105.759 51.4497C105.644 51.5644 105.58 51.7199 105.58 51.8821V57.1197C105.58 57.1998 105.596 57.2792 105.626 57.3532C105.657 57.4272 105.702 57.4944 105.759 57.551C105.816 57.6076 105.883 57.6524 105.957 57.6829C106.032 57.7134 106.111 57.729 106.191 57.7288H111.426C111.587 57.7289 111.743 57.6648 111.857 57.5506C111.972 57.4364 112.037 57.2814 112.037 57.1197V51.8821C112.037 51.72 111.972 51.5647 111.857 51.4501C111.743 51.3356 111.588 51.271 111.426 51.2705Z" fill="#21BDE9"/>
<path d="M111.426 60.1959H106.191C106.029 60.196 105.874 60.2604 105.759 60.3751C105.644 60.4897 105.58 60.6452 105.58 60.8074V66.0426C105.579 66.123 105.595 66.2026 105.626 66.2768C105.657 66.3511 105.701 66.4186 105.759 66.4754C105.815 66.5322 105.883 66.5772 105.957 66.6079C106.031 66.6385 106.111 66.6542 106.191 66.6541H111.426C111.588 66.654 111.743 66.5896 111.858 66.475C111.972 66.3603 112.037 66.2048 112.037 66.0426V60.8074C112.037 60.6453 111.972 60.4901 111.857 60.3755C111.743 60.2609 111.588 60.1964 111.426 60.1959Z" fill="#21BDE9"/>
<path d="M111.426 69.121H106.191C106.063 69.121 105.938 69.1616 105.834 69.2367C105.73 69.3124 105.653 69.4178 105.612 69.5397C105.591 69.6017 105.58 69.6671 105.58 69.7325V74.9678C105.579 75.0483 105.595 75.1282 105.626 75.2019C105.657 75.2763 105.701 75.3438 105.759 75.4009C105.815 75.4574 105.883 75.5029 105.957 75.5332C106.031 75.5642 106.111 75.5793 106.191 75.5793H111.426C111.588 75.5793 111.743 75.5153 111.858 75.4002C111.972 75.2859 112.037 75.1303 112.037 74.9678V69.7325C112.037 69.5707 111.972 69.4157 111.857 69.3007C111.743 69.1864 111.588 69.1217 111.426 69.121Z" fill="#21BDE9"/>
<path d="M111.426 78.0468H106.191C106.111 78.0461 106.031 78.062 105.957 78.0929C105.883 78.1232 105.815 78.1687 105.759 78.2252C105.701 78.2823 105.657 78.3498 105.626 78.4235C105.595 78.4979 105.579 78.5778 105.58 78.6583V83.8936C105.579 83.9735 105.595 84.0534 105.626 84.1277C105.657 84.2014 105.701 84.2689 105.759 84.3261C105.815 84.3826 105.883 84.428 105.957 84.4583C106.031 84.4893 106.111 84.5051 106.191 84.5044H111.426C111.588 84.5044 111.743 84.4404 111.858 84.3254C111.972 84.2111 112.037 84.0554 112.037 83.8936V78.6583C112.037 78.4958 111.972 78.3402 111.858 78.2259C111.743 78.1108 111.588 78.0468 111.426 78.0468Z" fill="#E6E6E6"/>
<path d="M122.421 42.3453H117.186C117.024 42.3453 116.869 42.4098 116.754 42.5244C116.64 42.639 116.575 42.7945 116.575 42.9567V48.1943C116.575 48.2745 116.591 48.3538 116.622 48.4279C116.652 48.5019 116.698 48.5691 116.754 48.6257C116.811 48.6822 116.879 48.7271 116.953 48.7576C117.027 48.7881 117.106 48.8037 117.186 48.8035H122.421C122.583 48.8035 122.738 48.7394 122.852 48.6252C122.967 48.511 123.032 48.3561 123.032 48.1943V42.9567C123.032 42.7947 122.967 42.6394 122.852 42.5249C122.738 42.4103 122.583 42.3457 122.421 42.3453Z" fill="#21BDE9"/>
<path d="M122.421 51.2705H117.186C117.024 51.2706 116.869 51.3351 116.754 51.4497C116.64 51.5644 116.575 51.7199 116.575 51.8821V57.1197C116.575 57.1998 116.591 57.2792 116.622 57.3532C116.652 57.4272 116.698 57.4944 116.754 57.551C116.811 57.6076 116.879 57.6524 116.953 57.6829C117.027 57.7134 117.106 57.729 117.186 57.7288H122.421C122.583 57.7289 122.738 57.6648 122.852 57.5506C122.967 57.4364 123.032 57.2814 123.032 57.1197V51.8821C123.032 51.72 122.967 51.5647 122.852 51.4501C122.738 51.3356 122.583 51.271 122.421 51.2705Z" fill="#21BDE9"/>
<path d="M122.421 60.1959H117.186C117.024 60.196 116.869 60.2604 116.754 60.3751C116.64 60.4897 116.575 60.6452 116.575 60.8074V66.0426C116.575 66.123 116.591 66.2026 116.621 66.2768C116.652 66.3511 116.697 66.4186 116.754 66.4754C116.811 66.5322 116.878 66.5772 116.952 66.6079C117.027 66.6385 117.106 66.6542 117.186 66.6541H122.421C122.583 66.654 122.739 66.5896 122.853 66.475C122.968 66.3603 123.032 66.2048 123.032 66.0426V60.8074C123.032 60.6453 122.967 60.4901 122.852 60.3755C122.738 60.2609 122.583 60.1964 122.421 60.1959Z" fill="#E6E6E6"/>
<path d="M122.421 69.121H117.186C117.024 69.121 116.869 69.1857 116.754 69.3007C116.64 69.415 116.575 69.5707 116.575 69.7325V74.9678C116.575 75.0483 116.591 75.1282 116.621 75.2019C116.652 75.2763 116.697 75.3438 116.754 75.4009C116.811 75.4574 116.878 75.5029 116.952 75.5332C117.027 75.5642 117.106 75.5793 117.186 75.5793H122.421C122.583 75.5793 122.739 75.5153 122.853 75.4002C122.968 75.2859 123.032 75.1303 123.032 74.9678V69.7325C123.032 69.5707 122.967 69.4157 122.852 69.3007C122.738 69.1864 122.583 69.1217 122.421 69.121Z" fill="#21BDE9"/>
<path d="M122.421 78.0468H117.186C117.106 78.0461 117.027 78.062 116.952 78.0929C116.878 78.1232 116.811 78.1687 116.754 78.2252C116.697 78.2823 116.652 78.3498 116.621 78.4235C116.591 78.4979 116.575 78.5778 116.575 78.6583V83.8936C116.575 83.9735 116.591 84.0534 116.621 84.1277C116.652 84.2014 116.697 84.2689 116.754 84.3261C116.811 84.3826 116.878 84.428 116.952 84.4583C117.027 84.4893 117.106 84.5051 117.186 84.5044H122.421C122.583 84.5044 122.739 84.4404 122.853 84.3254C122.968 84.2111 123.032 84.0554 123.032 83.8936V78.6583C123.032 78.4958 122.968 78.3402 122.853 78.2259C122.739 78.1108 122.583 78.0468 122.421 78.0468Z" fill="#21BDE9"/>
<path d="M133.417 42.3453H128.182C128.02 42.3453 127.864 42.4098 127.75 42.5244C127.635 42.639 127.57 42.7945 127.57 42.9567V48.1943C127.57 48.2745 127.586 48.3538 127.617 48.4279C127.648 48.5019 127.693 48.5691 127.75 48.6257C127.807 48.6822 127.874 48.7271 127.948 48.7576C128.022 48.7881 128.102 48.8037 128.182 48.8035H133.417C133.578 48.8035 133.733 48.7394 133.848 48.6252C133.963 48.511 134.027 48.3561 134.028 48.1943V42.9567C134.027 42.7947 133.963 42.6394 133.848 42.5249C133.734 42.4103 133.578 42.3457 133.417 42.3453Z" fill="#21BDE9"/>
<path d="M133.417 51.2705H128.182C128.02 51.2706 127.864 51.3351 127.75 51.4497C127.635 51.5644 127.57 51.7199 127.57 51.8821V57.1197C127.57 57.1998 127.586 57.2792 127.617 57.3532C127.648 57.4272 127.693 57.4944 127.75 57.551C127.807 57.6076 127.874 57.6524 127.948 57.6829C128.022 57.7134 128.102 57.729 128.182 57.7288H133.417C133.578 57.7289 133.733 57.6648 133.848 57.5506C133.963 57.4364 134.027 57.2814 134.028 57.1197V51.8821C134.027 51.72 133.963 51.5647 133.848 51.4501C133.734 51.3356 133.578 51.271 133.417 51.2705Z" fill="white"/>
<path d="M133.417 60.1959H128.182C128.02 60.196 127.864 60.2604 127.75 60.3751C127.635 60.4897 127.57 60.6452 127.57 60.8074V66.0426C127.57 66.123 127.586 66.2026 127.617 66.2768C127.648 66.3511 127.692 66.4186 127.749 66.4754C127.806 66.5322 127.874 66.5772 127.948 66.6079C128.022 66.6385 128.101 66.6542 128.182 66.6541H133.417C133.579 66.654 133.734 66.5896 133.848 66.475C133.963 66.3603 134.028 66.2048 134.028 66.0426V60.8074C134.027 60.6453 133.963 60.4901 133.848 60.3755C133.734 60.2609 133.578 60.1964 133.417 60.1959Z" fill="white"/>
<path d="M133.417 69.121H128.182C128.02 69.121 127.864 69.1857 127.75 69.3007C127.635 69.415 127.57 69.5707 127.57 69.7325V74.9678C127.57 75.0483 127.586 75.1282 127.617 75.2019C127.648 75.2763 127.692 75.3438 127.749 75.4009C127.806 75.4574 127.874 75.5029 127.948 75.5332C128.022 75.5642 128.101 75.5793 128.182 75.5793H133.417C133.579 75.5793 133.734 75.5153 133.848 75.4002C133.963 75.2859 134.028 75.1303 134.028 74.9678V69.7325C134.027 69.5707 133.963 69.4157 133.848 69.3007C133.734 69.1864 133.578 69.1217 133.417 69.121Z" fill="#E6E6E6"/>
<path d="M133.417 78.0468H128.182C128.101 78.0461 128.022 78.062 127.948 78.0929C127.874 78.1232 127.806 78.1687 127.749 78.2252C127.692 78.2823 127.648 78.3498 127.617 78.4235C127.586 78.4979 127.57 78.5778 127.57 78.6583V83.8936C127.57 83.9735 127.586 84.0534 127.617 84.1277C127.648 84.2014 127.692 84.2689 127.749 84.3261C127.806 84.3826 127.874 84.428 127.948 84.4583C128.022 84.4893 128.101 84.5051 128.182 84.5044H133.417C133.579 84.5044 133.734 84.4404 133.848 84.3254C133.963 84.2111 134.028 84.0554 134.028 83.8936V78.6583C134.028 78.4958 133.963 78.3402 133.848 78.2259C133.734 78.1108 133.579 78.0468 133.417 78.0468Z" fill="#21BDE9"/>
<path d="M144.412 42.3453H139.175C139.013 42.3458 138.858 42.4105 138.744 42.5251C138.63 42.6397 138.566 42.7949 138.566 42.9567V48.1943C138.566 48.3558 138.63 48.5108 138.744 48.625C138.859 48.7392 139.013 48.8034 139.175 48.8035H144.412C144.573 48.8035 144.728 48.7394 144.843 48.6252C144.958 48.511 145.023 48.3561 145.023 48.1943V42.9567C145.023 42.7947 144.958 42.6394 144.843 42.5249C144.729 42.4103 144.574 42.3457 144.412 42.3453Z" fill="white"/>
<path d="M144.412 51.2705H139.175C139.013 51.2711 138.858 51.3358 138.744 51.4504C138.63 51.565 138.566 51.7202 138.566 51.8821V57.1197C138.566 57.2812 138.63 57.4361 138.744 57.5504C138.859 57.6645 139.013 57.7287 139.175 57.7288H144.412C144.573 57.7289 144.728 57.6648 144.843 57.5506C144.958 57.4364 145.023 57.2814 145.023 57.1197V51.8821C145.023 51.72 144.958 51.5647 144.843 51.4501C144.729 51.3356 144.574 51.271 144.412 51.2705Z" fill="white"/>
<path d="M144.412 60.1959H139.175C139.013 60.1964 138.858 60.2611 138.744 60.3758C138.63 60.4904 138.566 60.6456 138.566 60.8074V66.0426C138.566 66.1228 138.581 66.2023 138.612 66.2764C138.642 66.3505 138.687 66.4179 138.743 66.4747C138.8 66.5315 138.868 66.5765 138.941 66.6073C139.015 66.6381 139.094 66.654 139.175 66.6541H144.412C144.574 66.654 144.729 66.5896 144.844 66.475C144.959 66.3603 145.023 66.2048 145.023 66.0426V60.8074C145.023 60.6453 144.958 60.4901 144.843 60.3755C144.729 60.2609 144.574 60.1964 144.412 60.1959Z" fill="white"/>
<path d="M144.412 69.121H139.175C139.013 69.1217 138.858 69.1864 138.744 69.3014C138.63 69.4157 138.566 69.5707 138.566 69.7325V74.9678C138.566 75.0483 138.581 75.1275 138.612 75.2019C138.642 75.2756 138.687 75.3431 138.743 75.4002C138.8 75.4567 138.868 75.5022 138.941 75.5325C139.015 75.5635 139.094 75.5793 139.175 75.5793H144.412C144.574 75.5793 144.729 75.5153 144.844 75.4002C144.959 75.2859 145.023 75.1303 145.023 74.9678V69.7325C145.023 69.5707 144.958 69.4157 144.843 69.3007C144.729 69.1864 144.574 69.1217 144.412 69.121Z" fill="#21BDE9"/>
<path d="M144.412 78.0468H139.175C139.094 78.0468 139.015 78.0626 138.941 78.0936C138.868 78.1239 138.8 78.1694 138.743 78.2258C138.687 78.283 138.642 78.3505 138.612 78.4242C138.581 78.4986 138.566 78.5778 138.566 78.6583V83.8936C138.566 83.9735 138.581 84.0527 138.612 84.127C138.642 84.2014 138.687 84.2682 138.743 84.3254C138.8 84.3819 138.868 84.4273 138.941 84.4583C139.015 84.4886 139.094 84.5044 139.175 84.5044H144.412C144.574 84.5044 144.729 84.4404 144.844 84.3254C144.959 84.2111 145.023 84.0554 145.023 83.8936V78.6583C145.023 78.4958 144.959 78.3402 144.844 78.2258C144.729 78.1108 144.574 78.0468 144.412 78.0468Z" fill="#E6E6E6"/>
<path d="M155.407 42.3453H150.17C150.008 42.3458 149.854 42.4105 149.739 42.5251C149.626 42.6397 149.561 42.7949 149.561 42.9567V48.1943C149.561 48.3558 149.626 48.5108 149.74 48.625C149.854 48.7392 150.009 48.8034 150.17 48.8035H155.407C155.569 48.8035 155.724 48.7394 155.839 48.6252C155.953 48.511 156.018 48.3561 156.019 48.1943V42.9567C156.018 42.7947 155.953 42.6394 155.839 42.5249C155.724 42.4103 155.569 42.3457 155.407 42.3453Z" fill="white"/>
<path d="M155.407 51.2705H150.17C150.008 51.2711 149.854 51.3358 149.739 51.4504C149.626 51.565 149.561 51.7202 149.561 51.8821V57.1197C149.561 57.2812 149.626 57.4361 149.74 57.5504C149.854 57.6645 150.009 57.7287 150.17 57.7288H155.407C155.569 57.7289 155.724 57.6648 155.839 57.5506C155.953 57.4364 156.018 57.2814 156.019 57.1197V51.8821C156.018 51.72 155.953 51.5647 155.839 51.4502C155.724 51.3356 155.569 51.271 155.407 51.2705Z" fill="white"/>
<path d="M155.407 60.1959H150.17C150.008 60.1964 149.854 60.2611 149.739 60.3758C149.626 60.4904 149.561 60.6456 149.561 60.8074V66.0426C149.561 66.1228 149.577 66.2023 149.607 66.2764C149.638 66.3505 149.683 66.4179 149.739 66.4747C149.796 66.5315 149.863 66.5765 149.937 66.6073C150.011 66.6381 150.09 66.654 150.17 66.6541H155.407C155.569 66.654 155.725 66.5896 155.839 66.4749C155.954 66.3603 156.019 66.2048 156.019 66.0426V60.8074C156.018 60.6454 155.953 60.4901 155.839 60.3755C155.724 60.2609 155.569 60.1964 155.407 60.1959Z" fill="#21BDE9"/>
<path d="M155.407 69.121H150.17C150.008 69.1217 149.854 69.1864 149.739 69.3014C149.626 69.4157 149.561 69.5707 149.561 69.7325V74.9678C149.561 75.0483 149.577 75.1275 149.607 75.2019C149.638 75.2756 149.683 75.3431 149.739 75.4002C149.796 75.4567 149.863 75.5022 149.937 75.5325C150.011 75.5635 150.09 75.5793 150.17 75.5793H155.407C155.569 75.5793 155.725 75.5153 155.839 75.4002C155.954 75.2859 156.019 75.1303 156.019 74.9678V69.7325C156.018 69.5707 155.953 69.4157 155.839 69.3007C155.724 69.1864 155.569 69.1217 155.407 69.121Z" fill="#E6E6E6"/>
<path d="M155.407 78.0468H150.17C150.09 78.0468 150.011 78.0626 149.937 78.0936C149.863 78.1239 149.796 78.1694 149.739 78.2258C149.683 78.283 149.638 78.3505 149.607 78.4242C149.577 78.4986 149.561 78.5778 149.561 78.6583V83.8936C149.561 83.9735 149.577 84.0527 149.607 84.127C149.638 84.2014 149.683 84.2682 149.739 84.3254C149.796 84.3819 149.863 84.4273 149.937 84.4583C150.011 84.4886 150.09 84.5044 150.17 84.5044H155.407C155.569 84.5044 155.725 84.4404 155.839 84.3254C155.954 84.2111 156.019 84.0554 156.019 83.8936V78.6583C156.019 78.4958 155.954 78.3402 155.839 78.2258C155.725 78.1108 155.569 78.0468 155.407 78.0468Z" fill="white"/>
<path d="M166.403 42.3453H161.166C161.004 42.3458 160.849 42.4105 160.735 42.5251C160.621 42.6397 160.557 42.7949 160.557 42.9567V48.1943C160.557 48.3558 160.621 48.5108 160.735 48.625C160.85 48.7392 161.004 48.8034 161.166 48.8035H166.403C166.564 48.8035 166.719 48.7394 166.834 48.6252C166.948 48.511 167.013 48.3561 167.014 48.1943V42.9567C167.013 42.7947 166.949 42.6394 166.834 42.5249C166.719 42.4103 166.564 42.3457 166.403 42.3453Z" fill="#21BDE9"/>
<path d="M166.403 51.2705H161.166C161.004 51.2711 160.849 51.3358 160.735 51.4504C160.621 51.565 160.557 51.7202 160.557 51.8821V57.1197C160.557 57.2812 160.621 57.4361 160.735 57.5504C160.85 57.6645 161.004 57.7287 161.166 57.7288H166.403C166.564 57.7289 166.719 57.6648 166.834 57.5506C166.948 57.4364 167.013 57.2814 167.014 57.1197V51.8821C167.013 51.72 166.949 51.5647 166.834 51.4502C166.72 51.3356 166.564 51.271 166.403 51.2705Z" fill="#21BDE9"/>
<path d="M166.403 60.1959H161.166C161.004 60.1964 160.849 60.2611 160.735 60.3758C160.621 60.4904 160.557 60.6456 160.557 60.8074V66.0426C160.557 66.1228 160.572 66.2023 160.603 66.2764C160.633 66.3505 160.678 66.4179 160.734 66.4747C160.791 66.5315 160.858 66.5765 160.932 66.6073C161.006 66.6381 161.086 66.654 161.166 66.6541H166.403C166.565 66.654 166.72 66.5896 166.834 66.4749C166.949 66.3603 167.014 66.2048 167.014 66.0426V60.8074C167.013 60.6454 166.949 60.4901 166.834 60.3755C166.72 60.2609 166.564 60.1964 166.403 60.1959Z" fill="#E6E6E6"/>
<path d="M166.403 69.121H161.166C161.004 69.1217 160.849 69.1864 160.735 69.3014C160.621 69.4157 160.557 69.5707 160.557 69.7325V74.9678C160.557 75.0483 160.572 75.1275 160.603 75.2019C160.633 75.2756 160.678 75.3431 160.734 75.4002C160.791 75.4567 160.858 75.5022 160.932 75.5325C161.006 75.5635 161.086 75.5793 161.166 75.5793H166.403C166.565 75.5793 166.72 75.5153 166.834 75.4002C166.949 75.2859 167.014 75.1303 167.014 74.9678V69.7325C167.013 69.5707 166.949 69.4157 166.834 69.3007C166.72 69.1864 166.564 69.1217 166.403 69.121Z" fill="white"/>
<path d="M166.403 78.0468H161.166C161.086 78.0468 161.006 78.0626 160.932 78.0936C160.858 78.1239 160.791 78.1694 160.734 78.2258C160.678 78.283 160.633 78.3505 160.603 78.4242C160.572 78.4986 160.557 78.5778 160.557 78.6583V83.8936C160.557 83.9735 160.572 84.0527 160.603 84.127C160.633 84.2014 160.678 84.2682 160.734 84.3254C160.791 84.3819 160.858 84.4273 160.932 84.4583C161.006 84.4886 161.086 84.5044 161.166 84.5044H166.403C166.565 84.5044 166.72 84.4404 166.834 84.3254C166.949 84.2111 167.014 84.0554 167.014 83.8936V78.6583C167.014 78.4958 166.949 78.3402 166.834 78.2258C166.72 78.1108 166.565 78.0468 166.403 78.0468Z" fill="#21BDE9"/>
<path d="M177.398 42.3453H172.161C171.999 42.3458 171.844 42.4105 171.73 42.5251C171.616 42.6397 171.552 42.7949 171.552 42.9567V48.1943C171.552 48.3558 171.617 48.5108 171.73 48.625C171.845 48.7392 171.999 48.8034 172.161 48.8035H177.398C177.559 48.8035 177.714 48.7394 177.83 48.6252C177.944 48.511 178.009 48.3561 178.009 48.1943V42.9567C178.009 42.7947 177.944 42.6394 177.83 42.5249C177.715 42.4103 177.56 42.3457 177.398 42.3453Z" fill="#21BDE9"/>
<path d="M177.398 51.2705H172.161C171.999 51.2711 171.844 51.3358 171.73 51.4504C171.616 51.565 171.552 51.7202 171.552 51.8821V57.1197C171.552 57.2812 171.617 57.4361 171.73 57.5504C171.845 57.6645 171.999 57.7287 172.161 57.7288H177.398C177.559 57.7289 177.714 57.6648 177.83 57.5506C177.944 57.4364 178.009 57.2814 178.009 57.1197V51.8821C178.009 51.72 177.944 51.5647 177.83 51.4502C177.715 51.3356 177.56 51.271 177.398 51.2705Z" fill="#21BDE9"/>
<path d="M177.398 60.1959H172.161C171.999 60.1964 171.844 60.2611 171.73 60.3758C171.616 60.4904 171.552 60.6456 171.552 60.8074V66.0426C171.552 66.1228 171.568 66.2023 171.598 66.2764C171.628 66.3505 171.673 66.4179 171.73 66.4747C171.786 66.5315 171.854 66.5765 171.928 66.6073C172.001 66.6381 172.081 66.654 172.161 66.6541H177.398C177.56 66.654 177.715 66.5896 177.83 66.4749C177.945 66.3603 178.009 66.2048 178.009 66.0426V60.8074C178.009 60.6454 177.944 60.4901 177.83 60.3755C177.715 60.2609 177.56 60.1964 177.398 60.1959Z" fill="#E6E6E6"/>
<path d="M177.398 69.121H172.161C171.999 69.1217 171.844 69.1864 171.73 69.3014C171.616 69.4157 171.552 69.5707 171.552 69.7325V74.9678C171.552 75.0483 171.568 75.1275 171.598 75.2019C171.628 75.2756 171.673 75.3431 171.73 75.4002C171.786 75.4567 171.854 75.5022 171.928 75.5325C172.001 75.5635 172.081 75.5793 172.161 75.5793H177.398C177.56 75.5793 177.715 75.5153 177.83 75.4002C177.945 75.2859 178.009 75.1303 178.009 74.9678V69.7325C178.009 69.5707 177.944 69.4157 177.83 69.3007C177.715 69.1864 177.56 69.1217 177.398 69.121Z" fill="#21BDE9"/>
<path d="M177.398 78.0468H172.161C172.081 78.0468 172.001 78.0626 171.928 78.0936C171.854 78.1239 171.786 78.1694 171.73 78.2258C171.673 78.283 171.628 78.3505 171.598 78.4242C171.568 78.4986 171.552 78.5778 171.552 78.6583V83.8936C171.552 83.9735 171.568 84.0527 171.598 84.127C171.628 84.2014 171.673 84.2682 171.73 84.3254C171.786 84.3819 171.854 84.4273 171.928 84.4583C172.001 84.4886 172.081 84.5044 172.161 84.5044H177.398C177.56 84.5044 177.715 84.4404 177.83 84.3254C177.945 84.2111 178.009 84.0554 178.009 83.8936V78.6583C178.009 78.4958 177.945 78.3402 177.83 78.2258C177.715 78.1108 177.56 78.0468 177.398 78.0468Z" fill="#21BDE9"/>
<path d="M188.393 42.3453H183.157C182.994 42.3458 182.84 42.4105 182.726 42.5251C182.612 42.6397 182.548 42.7949 182.548 42.9567V48.1943C182.548 48.3558 182.612 48.5108 182.726 48.625C182.84 48.7392 182.995 48.8034 183.157 48.8035H188.393C188.555 48.8035 188.71 48.7394 188.825 48.6252C188.939 48.511 189.004 48.3561 189.005 48.1943V42.9567C189.004 42.7947 188.939 42.6394 188.825 42.5249C188.71 42.4103 188.555 42.3457 188.393 42.3453Z" fill="#E6E6E6"/>
<path d="M188.393 51.2705H183.157C182.994 51.2711 182.84 51.3358 182.726 51.4504C182.612 51.565 182.548 51.7202 182.548 51.8821V57.1197C182.548 57.2812 182.612 57.4361 182.726 57.5504C182.84 57.6645 182.995 57.7287 183.157 57.7288H188.393C188.555 57.7289 188.71 57.6648 188.825 57.5506C188.939 57.4364 189.004 57.2814 189.005 57.1197V51.8821C189.004 51.72 188.939 51.5647 188.825 51.4502C188.71 51.3356 188.555 51.271 188.393 51.2705Z" fill="#21BDE9"/>
<path d="M188.393 60.1959H183.157C182.994 60.1964 182.84 60.2611 182.726 60.3758C182.612 60.4904 182.548 60.6456 182.548 60.8074V66.0426C182.548 66.1228 182.563 66.2023 182.593 66.2764C182.624 66.3505 182.669 66.4179 182.726 66.4747C182.782 66.5315 182.849 66.5765 182.923 66.6073C182.997 66.6381 183.077 66.654 183.157 66.6541H188.393C188.555 66.654 188.711 66.5896 188.826 66.4749C188.94 66.3603 189.005 66.2048 189.005 66.0426V60.8074C189.004 60.6454 188.939 60.4901 188.825 60.3755C188.71 60.2609 188.555 60.1964 188.393 60.1959Z" fill="#21BDE9"/>
<path d="M188.393 69.121H183.157C182.994 69.1217 182.84 69.1864 182.726 69.3014C182.612 69.4157 182.548 69.5707 182.548 69.7325V74.9678C182.548 75.0483 182.563 75.1275 182.593 75.2019C182.624 75.2756 182.669 75.3431 182.726 75.4002C182.782 75.4567 182.849 75.5022 182.923 75.5325C182.997 75.5635 183.077 75.5793 183.157 75.5793H188.393C188.555 75.5793 188.711 75.5153 188.826 75.4002C188.94 75.2859 189.005 75.1303 189.005 74.9678V69.7325C189.004 69.5707 188.939 69.4157 188.825 69.3007C188.71 69.1864 188.555 69.1217 188.393 69.121Z" fill="#21BDE9"/>
<path d="M188.393 78.0468H183.157C183.077 78.0468 182.997 78.0626 182.923 78.0936C182.849 78.1239 182.782 78.1694 182.726 78.2258C182.669 78.283 182.624 78.3505 182.593 78.4242C182.563 78.4986 182.548 78.5778 182.548 78.6583V83.8936C182.548 83.9735 182.563 84.0527 182.593 84.127C182.624 84.2014 182.669 84.2682 182.726 84.3254C182.782 84.3819 182.849 84.4273 182.923 84.4583C182.997 84.4886 183.077 84.5044 183.157 84.5044H188.393C188.555 84.5044 188.711 84.4404 188.826 84.3254C188.94 84.2111 189.005 84.0554 189.005 83.8936V78.6583C189.005 78.4958 188.94 78.3402 188.826 78.2258C188.711 78.1108 188.555 78.0468 188.393 78.0468Z" fill="#E6E6E6"/>
<path d="M199.388 42.3453H194.152C193.99 42.3458 193.835 42.4105 193.721 42.5251C193.607 42.6397 193.543 42.7949 193.543 42.9567V48.1943C193.543 48.3558 193.607 48.5108 193.721 48.625C193.835 48.7392 193.99 48.8034 194.152 48.8035H199.388C199.55 48.8035 199.706 48.7394 199.82 48.6252C199.934 48.511 199.999 48.3561 200 48.1943V42.9567C199.999 42.7947 199.935 42.6394 199.821 42.5249C199.706 42.4103 199.55 42.3457 199.388 42.3453Z" fill="#E6E6E6"/>
<path d="M199.388 51.2705H194.152C193.99 51.2711 193.835 51.3358 193.721 51.4504C193.607 51.565 193.543 51.7202 193.543 51.8821V57.1197C193.543 57.2812 193.607 57.4361 193.721 57.5504C193.835 57.6645 193.99 57.7287 194.152 57.7288H199.388C199.55 57.7289 199.706 57.6648 199.82 57.5506C199.934 57.4364 199.999 57.2814 200 57.1197V51.8821C199.999 51.72 199.935 51.5647 199.821 51.4502C199.706 51.3356 199.55 51.271 199.388 51.2705Z" fill="#E6E6E6"/>
<path d="M199.388 60.1959H194.152C193.99 60.1964 193.835 60.2611 193.721 60.3758C193.607 60.4904 193.543 60.6456 193.543 60.8074V66.0426C193.543 66.1228 193.558 66.2023 193.589 66.2764C193.619 66.3505 193.664 66.4179 193.721 66.4747C193.777 66.5315 193.844 66.5765 193.919 66.6073C193.992 66.6381 194.072 66.654 194.152 66.6541H199.388C199.551 66.654 199.706 66.5896 199.821 66.4749C199.935 66.3603 200 66.2048 200 66.0426V60.8074C199.999 60.6454 199.935 60.4901 199.821 60.3755C199.706 60.2609 199.55 60.1964 199.388 60.1959Z" fill="#21BDE9"/>
<path d="M199.388 69.121H194.152C193.99 69.1217 193.835 69.1864 193.721 69.3014C193.607 69.4157 193.543 69.5707 193.543 69.7325V74.9678C193.543 75.0483 193.558 75.1275 193.589 75.2019C193.619 75.2756 193.664 75.3431 193.721 75.4002C193.777 75.4567 193.844 75.5022 193.919 75.5325C193.992 75.5635 194.072 75.5793 194.152 75.5793H199.388C199.551 75.5793 199.706 75.5153 199.821 75.4002C199.935 75.2859 200 75.1303 200 74.9678V69.7325C199.999 69.5707 199.935 69.4157 199.821 69.3007C199.706 69.1864 199.55 69.1217 199.388 69.121Z" fill="#E6E6E6"/>
<path d="M199.388 78.0468H194.152C194.072 78.0468 193.992 78.0626 193.919 78.0936C193.844 78.1239 193.777 78.1694 193.721 78.2258C193.664 78.283 193.619 78.3505 193.589 78.4242C193.558 78.4986 193.543 78.5778 193.543 78.6583V83.8936C193.543 83.9735 193.558 84.0527 193.589 84.127C193.619 84.2014 193.664 84.2682 193.721 84.3254C193.777 84.3819 193.844 84.4273 193.919 84.4583C193.992 84.4886 194.072 84.5044 194.152 84.5044H199.388C199.551 84.5044 199.706 84.4404 199.821 84.3254C199.935 84.2111 200 84.0554 200 83.8936V78.6583C200 78.4958 199.935 78.3402 199.821 78.2258C199.706 78.1108 199.551 78.0468 199.388 78.0468Z" fill="#E6E6E6"/>
<path d="M79.0301 155.235H78.8855L79.0089 155.218L79.0301 155.235Z" fill="#2F2E41"/>
<path d="M66.5025 57.6336C75.3752 57.6336 82.5683 50.4395 82.5683 41.5651C82.5683 32.6908 75.3752 25.4968 66.5025 25.4968C57.6297 25.4968 50.4369 32.6908 50.4369 41.5651C50.4369 50.4395 57.6297 57.6336 66.5025 57.6336Z" fill="#8C4D4D"/>
<path d="M80.5717 29.7841C80.5717 29.7841 84.7738 21.7499 75.529 21.0195C75.529 21.0195 67.6483 13.8693 59.6155 19.7124C59.6155 19.7124 55.234 19.7124 52.8381 24.6714C52.8381 24.6714 49.392 23.3642 48.6347 26.8625C48.6347 26.8625 46.1131 34.1664 48.6347 40.7398C51.1563 47.3132 51.9939 48.0437 51.9939 48.0437C51.9939 48.0437 47.8504 34.2621 57.9359 33.5317C68.0215 32.8013 79.3076 26.4974 80.1483 34.5316C80.9883 42.5657 82.2531 44.5453 82.2531 44.5453C82.2531 44.5453 90.2366 33.0708 80.5717 29.7841Z" fill="#2F2E41"/>
<path d="M108.061 81.1651L108.009 81.4378L107.428 84.5044L103.414 105.719L103.177 106.967L102.678 109.608L101.996 113.212L100.484 121.196L100.052 123.484L99.889 124.343L99.8331 124.644L99.3835 127.013L99.2476 127.727L98.1517 135.848L97.1945 142.925L100.397 146.129L98.4876 148.038L97.2345 155.218L97.2365 155.235H46.0857C44.0164 153.894 41.9769 152.512 39.9672 151.088L40.3881 147.937C40.3881 147.937 41.8366 142.309 41.2275 141.636C40.6209 140.964 39.2899 139.762 39.2899 139.762L40.9666 135.848L41.1993 135.305L40.809 127.207L40.7996 127.013L40.6703 124.343L40.6538 124L40.6279 123.484L40.1318 113.212L40.1224 113.042L39.9719 109.929L39.8308 106.967L39.7697 105.719L39.1654 93.223L38.7562 84.7379L38.3988 77.3506L39.8355 76.8637L55.2023 71.6401L61.5677 63.3638L74.8159 63.4626L81.3014 63.512L92.1228 73.5498L94.5841 74.7254L94.6035 74.735L96.369 75.5793L100.846 77.7169L105.58 79.9799L108.009 81.1389L108.061 81.1651Z" fill="#CACACA"/>
<path d="M63.2797 131.129C62.3088 131.505 61.2674 131.663 60.2286 131.594C59.1898 131.523 58.179 131.226 57.2674 130.724C56.3557 130.22 55.5654 129.524 54.9521 128.683C54.3389 127.841 53.9175 126.875 53.7178 125.853L28.661 122.298L37.3714 112.443L59.8303 117.33C61.5692 117.108 63.3289 117.532 64.7761 118.521C66.2234 119.51 67.2576 120.996 67.6828 122.697C68.1079 124.398 67.8945 126.196 67.083 127.749C66.2715 129.304 64.9183 130.505 63.2797 131.129Z" fill="#FFB6B6"/>
<path d="M52.1077 113.212C51.6436 112.623 50.9865 112.217 50.2524 112.066L39.9719 109.929L38.9161 109.71C38.3025 109.582 37.7229 109.325 37.2152 108.958C36.7074 108.59 36.283 108.12 35.9697 107.576C35.6447 107.007 35.4481 106.372 35.3936 105.719C35.3446 105.124 35.4157 104.526 35.6029 103.959L39.1653 93.223L41.4768 86.2571C41.7569 85.4169 41.9223 84.5423 41.9683 83.6581C42.097 81.2105 41.3399 78.7981 39.8354 76.8637C38.5128 75.1627 36.6784 73.9327 34.6032 73.3556C32.5279 72.7778 30.3219 72.8832 28.311 73.6559C28.2522 73.6765 28.1911 73.7006 28.1323 73.724C26.6902 74.2998 25.4018 75.2033 24.3689 76.363C23.336 77.5227 22.5869 78.9063 22.1808 80.4055L19.6694 89.5427L14.4892 108.379C13.9706 110.265 13.8659 112.243 14.1821 114.174C14.4983 116.105 15.228 117.946 16.3212 119.569C17.4145 121.193 18.8456 122.56 20.5164 123.579C22.1872 124.598 24.0584 125.243 26.0019 125.472L40.809 127.207L47.6611 128.012C48.4534 128.107 49.2525 127.9 49.8993 127.433C50.546 126.965 50.9928 126.271 51.1507 125.488C51.1617 125.446 51.1704 125.402 51.1765 125.359L51.3411 124.343L52.7356 115.787L52.7496 115.7C52.8223 115.263 52.8027 114.816 52.6921 114.388C52.5816 113.959 52.3825 113.559 52.1077 113.212Z" fill="#CACACA"/>
<path d="M79.24 131.403C80.2538 131.638 81.3076 131.649 82.3262 131.432C83.3448 131.217 84.3034 130.78 85.1352 130.154C85.9669 129.528 86.651 128.726 87.1393 127.807C87.6276 126.887 87.909 125.871 87.9627 124.832L112.268 117.777L102.254 109.25L80.709 117.256C78.9565 117.282 77.2738 117.949 75.9807 119.133C74.6876 120.316 73.8731 121.933 73.6917 123.677C73.511 125.42 73.9759 127.17 74.9979 128.594C76.0207 130.018 77.5296 131.017 79.24 131.403Z" fill="#FFB6B6"/>
<path d="M124.335 101.998L112.775 75.3892C111.83 73.2041 110.141 71.4252 108.009 70.3675C107.35 70.0431 106.657 69.791 105.944 69.6154C105.834 69.5872 105.723 69.561 105.612 69.5397C104.1 69.2098 102.531 69.2387 101.032 69.6244C99.6614 69.977 98.3807 70.614 97.2731 71.4941C96.1655 72.3749 95.2552 73.4795 94.6035 74.735C94.5959 74.7453 94.5897 74.7563 94.5841 74.768C93.8559 76.1777 93.4683 77.739 93.4531 79.3263C93.4379 80.913 93.7959 82.4818 94.4972 83.9053L94.6407 84.1918L102.81 100.601C103.089 101.162 103.246 101.776 103.271 102.402C103.296 103.028 103.188 103.652 102.955 104.234C102.722 104.816 102.369 105.341 101.918 105.777C101.468 106.212 100.93 106.547 100.341 106.76L99.7669 106.967L89.449 110.695C88.6745 110.971 88.0379 111.537 87.6724 112.274C87.3069 113.01 87.2414 113.86 87.4903 114.644L87.5159 114.726L90.4083 123.983C90.4221 124.026 90.4366 124.068 90.4531 124.11C90.4786 124.19 90.5097 124.268 90.5469 124.343C90.8545 125.033 91.3979 125.59 92.0793 125.914C92.7607 126.239 93.5359 126.31 94.2648 126.114L99.8331 124.644L100.968 124.343L115.348 120.545C117.24 120.045 119.001 119.142 120.512 117.897C122.023 116.653 123.246 115.097 124.1 113.336C124.954 111.575 125.417 109.649 125.457 107.693C125.497 105.735 125.114 103.793 124.335 101.998Z" fill="#CACACA"/>
<path d="M10.5576 124.343C13.8897 128.408 17.4832 132.251 21.3154 135.848H127.594C128.618 135.85 129.599 136.258 130.323 136.982C131.047 137.706 131.454 138.688 131.455 139.712L131.608 166.648C138.146 163.644 144.269 159.808 149.825 155.235C151.368 153.967 152.862 152.645 154.309 151.267C155.257 150.369 156.181 149.449 157.083 148.506C163.848 141.459 169.324 133.281 173.266 124.343H10.5576Z" fill="#3F3D56"/>
<path d="M157.083 148.506C156.183 149.449 155.258 150.369 154.309 151.267H131.686V148.506H157.083Z" fill="white"/>
<path d="M107.849 60.1959C107.737 59.9896 107.572 59.8173 107.37 59.6972C107.168 59.5772 106.939 59.5138 106.703 59.5138H29.6137C29.2681 59.5148 28.9369 59.6527 28.6928 59.8973C28.4486 60.142 28.3113 60.4734 28.311 60.8191V106.967H108.009V60.8191C108.01 60.6011 107.955 60.3864 107.849 60.1959Z" fill="#3F3D56"/>
<path d="M28.2412 105.718V111.413C28.2412 111.649 28.2877 111.882 28.3781 112.101C28.4683 112.319 28.6008 112.517 28.7677 112.684C28.9346 112.851 29.1327 112.984 29.3508 113.074C29.5689 113.164 29.8026 113.21 30.0386 113.21H59.4546V124.449H59.0637C59.0331 124.449 59.0028 124.455 58.9744 124.467C58.9461 124.479 58.9203 124.496 58.8986 124.517C58.877 124.539 58.8598 124.565 58.848 124.593C58.8363 124.621 58.8303 124.652 58.8303 124.683V125.464C58.8303 125.495 58.8363 125.526 58.848 125.554C58.8597 125.582 58.877 125.608 58.8986 125.63C58.9203 125.651 58.9461 125.668 58.9744 125.681C59.0028 125.692 59.0331 125.698 59.0637 125.698H77.3248C77.3552 125.698 77.3855 125.692 77.4138 125.681C77.4428 125.668 77.4683 125.651 77.4897 125.63C77.5117 125.608 77.529 125.582 77.5407 125.554C77.5524 125.526 77.5579 125.495 77.5579 125.464V124.683C77.5579 124.652 77.5524 124.621 77.5407 124.593C77.529 124.565 77.5117 124.539 77.4897 124.517C77.4683 124.496 77.4428 124.479 77.4138 124.467C77.3855 124.455 77.3552 124.449 77.3248 124.449H76.9338V113.21H106.35C106.586 113.21 106.82 113.164 107.038 113.074C107.256 112.984 107.454 112.851 107.621 112.684C107.788 112.517 107.92 112.319 108.01 112.101C108.101 111.882 108.148 111.649 108.148 111.413V105.718H28.2412Z" fill="#3F3D56"/>
<path d="M67.2288 89.3733C71.2945 89.3733 74.5903 86.0767 74.5903 82.0101C74.5903 77.9442 71.2945 74.6475 67.2288 74.6475C63.163 74.6475 59.8672 77.9442 59.8672 82.0101C59.8672 86.0767 63.163 89.3733 67.2288 89.3733Z" fill="#21BDE9"/>
<path d="M85.9848 40.6872H84.8096C84.8096 31.7971 76.0124 25.9715 67.1382 25.9669C65.8474 25.9631 64.5594 26.0884 63.2936 26.3408C61.8686 26.6254 60.3895 26.9664 58.9363 27.4109C53.2059 29.1677 47.8916 32.5638 47.8916 40.6872C47.8903 42.2648 48.0911 43.8361 48.4888 45.3627L47.3507 45.659C46.9286 44.0355 46.7152 42.3647 46.7159 40.6872C46.7159 33.5893 49.6293 28.7138 54.6614 25.8069C57.3068 24.2782 60.5353 23.2928 64.2341 22.813C65.7734 22.6082 67.3294 22.5609 68.8783 22.6719C79.0834 23.4056 85.9848 31.2327 85.9848 40.6872Z" fill="#21BDE9"/>
<path d="M87.9441 41.3386L87.4807 37.9143C87.3662 37.0495 86.9497 36.2531 86.3048 35.6659C85.891 35.2832 85.3952 34.9996 84.8552 34.8366C84.3159 34.6736 83.7462 34.6355 83.189 34.7252L82.4531 34.8263C82.2517 34.8528 82.0579 34.9191 81.8821 35.0212C81.7062 35.1233 81.5531 35.2593 81.4304 35.4213C81.3069 35.5827 81.2159 35.7671 81.1642 35.9636C81.1117 36.1603 81.0993 36.3652 81.1269 36.5667L82.1972 44.4549C82.2407 44.7763 82.3848 45.0758 82.609 45.3109C82.8324 45.5461 83.1241 45.7049 83.4435 45.7648C83.5379 45.7838 83.6338 45.7932 83.7304 45.7931C83.7993 45.7931 83.8683 45.7883 83.9373 45.779L84.76 45.6684C85.2621 45.6018 85.7448 45.4333 86.1786 45.1733C86.6131 44.9132 86.9897 44.5671 87.2855 44.1562C87.349 44.0668 87.4104 43.9751 87.4662 43.881C87.9069 43.1115 88.0752 42.2157 87.9441 41.3386Z" fill="#21BDE9"/>
<path d="M81.9779 34.9698C81.7621 35.0747 81.5745 35.2295 81.4304 35.4213C81.3069 35.5827 81.2159 35.7671 81.1642 35.9636C81.1117 36.1603 81.0993 36.3652 81.1269 36.5667L82.1972 44.4549C82.2407 44.7764 82.3848 45.0758 82.609 45.3109C82.8324 45.546 83.1241 45.7049 83.4435 45.7648L81.9779 34.9698Z" fill="white"/>
<path d="M87.9441 41.3386L87.4807 37.9143C87.3662 37.0495 86.9497 36.2531 86.3048 35.6659L87.3703 43.5141C87.3862 43.6401 87.4186 43.7634 87.4662 43.881C87.9076 43.1115 88.0752 42.2157 87.9441 41.3386Z" fill="#3F3D56"/>
<path d="M84.2828 43.8059C84.6041 43.7623 84.7662 42.9965 84.6441 42.0955C84.5221 41.1945 84.1621 40.4995 83.84 40.5431C83.5186 40.5868 83.3566 41.3526 83.4786 42.2536C83.6014 43.1546 83.9607 43.8495 84.2828 43.8059Z" fill="#3F3D56"/>
<path d="M83.5772 39.5725C83.8993 39.5289 84.0607 38.7632 83.9386 37.8622C83.8165 36.9612 83.4565 36.2662 83.1345 36.3098C82.8131 36.3535 82.651 37.1192 82.7738 38.0202C82.8959 38.9212 83.2559 39.6162 83.5772 39.5725Z" fill="#3F3D56"/>
<path d="M88.0448 41.2189C88.3669 41.1752 88.5283 40.4094 88.4062 39.5084C88.2841 38.6074 87.9241 37.9124 87.6028 37.9561C87.2807 37.9998 87.1193 38.7656 87.2414 39.6665C87.3635 40.5675 87.7235 41.2625 88.0448 41.2189Z" fill="#3F3D56"/>
<path d="M67.1382 25.9669C65.8474 25.9631 64.5594 26.0883 63.2936 26.3408C61.8686 26.6254 60.3895 26.9664 58.9363 27.4109C56.6672 27.3003 54.9977 26.7124 54.6614 25.8069C57.3068 24.2782 60.5353 23.2928 64.2341 22.813C65.7734 22.6082 67.3294 22.5609 68.8783 22.6719C69.0421 22.768 69.1841 22.8977 69.2945 23.0526C69.4041 23.2074 69.4807 23.3839 69.5179 23.5703C69.6283 24.3887 68.6949 25.2589 67.1382 25.9669Z" fill="#3F3D56"/>
<path d="M52.1266 48.8482L50.3159 41.3198C50.2514 41.0482 50.108 40.8017 49.9039 40.6113C49.6997 40.421 49.4439 40.2952 49.1684 40.2497C49.0906 40.2376 49.012 40.2313 48.9333 40.2309C48.8223 40.2313 48.7119 40.2448 48.6041 40.2709L47.9033 40.4402C47.0011 40.6584 46.2223 41.2258 45.7379 42.0177C45.2534 42.8096 45.1028 43.7614 45.3191 44.6641L46.1303 48.0414C46.3156 48.8366 46.7568 49.5488 47.386 50.0687C47.488 50.1511 47.5948 50.2273 47.7058 50.2969C48.1 50.544 48.5397 50.7096 48.9988 50.7839C49.458 50.8582 49.9275 50.8398 50.3795 50.7297L51.0778 50.5603C51.2625 50.5172 51.4362 50.4364 51.5881 50.3228C51.8139 50.1581 51.9857 49.93 52.0816 49.6674C52.1775 49.4048 52.1931 49.1196 52.1266 48.8482Z" fill="#21BDE9"/>
<path d="M48.3308 47.4474C48.6464 47.3714 48.7299 46.5932 48.5172 45.7092C48.3045 44.8252 47.8762 44.1702 47.5606 44.2462C47.2449 44.3222 47.1614 45.1003 47.3741 45.9843C47.5868 46.8684 48.0151 47.5234 48.3308 47.4474Z" fill="#3F3D56"/>
<path d="M45.9793 48.1529C46.295 48.077 46.3784 47.2988 46.1657 46.4148C45.953 45.5308 45.5248 44.8758 45.2091 44.9517C44.8934 45.0277 44.8099 45.8059 45.0226 46.6899C45.2353 47.5739 45.6636 48.229 45.9793 48.1529Z" fill="#3F3D56"/>
<path d="M52.2417 48.8199L50.4312 41.2916C50.3606 40.9977 50.205 40.7312 49.9837 40.5254C49.7624 40.3195 49.4854 40.1836 49.1872 40.1345L51.6586 50.4168C51.9027 50.238 52.0883 49.9909 52.1921 49.7067C52.2959 49.4225 52.3132 49.1139 52.2417 48.8199Z" fill="white"/>
<path d="M45.7282 43.1731C45.6783 42.9637 45.5845 42.7673 45.4531 42.5969C45.1986 43.2562 45.1518 43.9775 45.3191 44.6641L46.1303 48.0414C46.3156 48.8365 46.7567 49.5488 47.386 50.0687L45.7282 43.1731Z" fill="#3F3D56"/>
</g>
<defs>
<clipPath id="clip0_30_2">
<rect width="200" height="174.233" fill="white"/>
</clipPath>
</defs>
</svg>
