<svg width="70" height="25" fill="none" xmlns="http://www.w3.org/2000/svg"><path fill-rule="evenodd" clip-rule="evenodd" d="M17.819.88 28.11 10.997 38.403.88v23.963L20.492 7.237v15.61h-2.673V.88Zm12.189 11.982 5.721 5.624V7.237l-5.721 5.625ZM51.92 24.88 39.94 13.052 51.92 1.224V24.88Zm-2.628-6.275V7.5l-5.624 5.552 5.624 5.553ZM4.33 14.004l7.325-7.21-2.145-2.19L0 13.964l9.49 9.687 2.184-2.15-7.345-7.497ZM65.41 14.004l-7.326-7.21 2.145-2.19 9.51 9.36-9.49 9.687-2.184-2.15 7.345-7.497Z" fill="#fff"/></svg>