<svg width="200" height="174" viewBox="0 0 200 174" fill="none" xmlns="http://www.w3.org/2000/svg">
<rect width="200" height="174" fill="#141414"/>
<g clip-path="url(#clip0_30_88)">
<path d="M34.2377 147.356L37.2507 148.172L41.8329 136.936L37.3855 135.731L34.2377 147.356Z" fill="#8C4D4D"/>
<path d="M33.2799 150.471L42.5463 152.982L42.578 152.864C42.8371 151.908 42.7056 150.887 42.2124 150.028C41.7193 149.168 40.9049 148.539 39.9484 148.28L39.9481 148.28L38.6034 146.537L35.0974 146.966L34.2886 146.747L33.2799 150.471Z" fill="#21BDE9"/>
<path d="M55.0434 149.971L58.1651 149.971L59.6503 137.928L55.0427 137.928L55.0434 149.971Z" fill="#8C4D4D"/>
<path d="M54.9334 153.228L64.5336 153.228V153.107C64.5335 152.115 64.1398 151.165 63.4391 150.464C62.7383 149.763 61.7879 149.369 60.7969 149.369H60.7967L59.0431 148.039L55.7713 149.37L54.9332 149.37L54.9334 153.228Z" fill="#21BDE9"/>
<path d="M56.3763 80.525L60.5658 139.874L53.819 140.471L44.4065 96.4872L45.4495 121.936L41.7138 141.952L36.003 139.19L36.0979 118.349L28.6002 84.6691L30.5958 80.525H56.3763Z" fill="#21BDE9"/>
<path d="M29.557 87.9092L29.5151 87.8505C27.2792 84.7197 30.642 77.1963 31.1493 76.1056C30.547 75.9102 30.031 75.5119 29.6894 74.9787C29.3477 74.4455 29.2014 73.8104 29.2754 73.1814L29.494 71.3225L29.7219 69.4992L28.0892 67.8662L28.0846 67.8255L27.145 59.6025L25.7788 54.141C25.264 52.0763 25.3079 49.9118 25.9059 47.8697C26.5039 45.8276 27.6345 43.9814 29.1816 42.5207L32.3395 42.0191L36.1773 38.3208H42.3663L44.4884 40.3485C48.4498 41.0434 49.1304 40.8165 52.5331 44.9005L50.9869 57.5976L50.6012 59.3444L50.6024 61.7135L51.583 62.8035C51.9362 63.1961 52.1929 63.6659 52.3326 64.1752C52.4723 64.6846 52.4911 65.2196 52.3875 65.7375L52.2585 66.3824C53.2699 66.8159 54.235 74.5198 54.4656 75.5959L54.81 77.2033C55.1046 77.5922 57.0496 80.1859 57.0496 80.895C57.0496 81.0014 56.971 81.1044 56.8024 81.2185C55.477 82.1162 50.1925 88.484 46.9501 87.1863C43.4962 85.8051 29.7667 87.8771 29.6283 87.8982L29.557 87.9092Z" fill="white"/>
<path d="M28.7255 73.1446C28.7255 73.1446 30.3148 64.1611 28.7137 60.7826L22.3618 61.2363L23.3285 74.0524L28.8812 88.2821C28.7964 88.7205 28.8292 89.1736 28.9761 89.5953C29.123 90.0169 29.3788 90.3922 29.7176 90.683C30.0564 90.9738 30.4661 91.1698 30.9052 91.251C31.3442 91.3323 31.7969 91.2959 32.2173 91.1455C32.6377 90.9952 33.0108 90.7363 33.2989 90.3951C33.5869 90.0539 33.7795 89.6426 33.8572 89.2029C33.9349 88.7632 33.8949 88.3107 33.7412 87.8915C33.5875 87.4722 33.3257 87.1011 32.9822 86.8158L28.7255 73.1446Z" fill="#8C4D4D"/>
<path d="M22.3618 56.0179L22.7549 51.7363C22.9029 50.1249 23.3679 48.5586 24.1233 47.1275C24.8787 45.6965 25.9095 44.429 27.1565 43.3978C27.9313 42.7619 28.8684 42.3553 29.8621 42.2241C30.8558 42.093 31.8663 42.2423 32.7796 42.6554V42.6554C34.0138 43.2237 34.9861 44.2395 35.5001 45.4974C36.0141 46.7554 36.0313 48.1616 35.5482 49.4317C34.0801 53.2825 34.6103 57.3549 31.7477 57.8514L32.0587 59.3312L29.244 68.5179L21.2275 67.5892L22.3618 56.0179Z" fill="white"/>
<path d="M53.8442 85.3284C53.5634 85.6755 53.3793 86.0907 53.3107 86.532C53.2422 86.9732 53.2916 87.4247 53.4539 87.8407C53.6162 88.2567 53.8857 88.6223 54.235 88.9004C54.5843 89.1786 55.001 89.3593 55.4427 89.4243C55.8844 89.4893 56.3354 89.4363 56.75 89.2706C57.1646 89.1049 57.528 88.8324 57.8032 88.4809C58.0785 88.1293 58.2559 87.7112 58.3173 87.2689C58.3788 86.8266 58.3221 86.3759 58.1531 85.9626L60.8102 70.9205L59.2472 58.1634L52.9296 58.9633C52.0214 62.5901 55.34 71.088 55.34 71.088L53.8442 85.3284Z" fill="#8C4D4D"/>
<path d="M61.6042 64.1708L53.925 66.6527L50.9685 62.0396L50.9835 60.5275C48.0791 60.6017 46.1977 52.6604 44.0037 49.1719C43.2811 48.0211 43.0225 46.6388 43.2801 45.3045C43.5376 43.9703 44.2921 42.7836 45.391 41.9844V41.9844C46.2056 41.4004 47.1673 41.0558 48.1674 40.9897C49.1675 40.9236 50.1662 41.1386 51.0506 41.6104V41.6104C52.4754 42.3772 53.7345 43.4181 54.7557 44.6734C55.7768 45.9286 56.5397 47.3734 57.0005 48.9246L58.2248 53.0462L61.6042 64.1708Z" fill="white"/>
<path d="M38.8543 36.5341C42.6503 36.5341 45.7276 33.4564 45.7276 29.6598C45.7276 25.8632 42.6503 22.7854 38.8543 22.7854C35.0582 22.7854 31.9809 25.8632 31.9809 29.6598C31.9809 33.4564 35.0582 36.5341 38.8543 36.5341Z" fill="#8C4D4D"/>
<path d="M33.8661 34.5052C33.8061 34.4525 33.7495 34.3963 33.6909 34.3423C33.6887 34.3478 33.6884 34.3535 33.6862 34.359L33.8661 34.5052Z" fill="#21BDE9"/>
<path d="M44.4869 22.4004C44.1454 21.8506 43.6724 21.3945 43.1106 21.0732C42.7265 20.8869 42.323 20.7439 41.9074 20.6469L40.8196 20.35C40.2623 20.1775 39.6889 20.0621 39.1082 20.0054C38.3019 19.9656 37.5002 20.1482 36.7906 20.5332C36.081 20.9182 35.4908 21.4909 35.0845 22.1886C34.7559 22.7716 34.4923 23.4981 33.858 23.7114C33.3466 23.8834 32.7886 23.6408 32.2511 23.6879C31.9361 23.7335 31.6372 23.8562 31.381 24.0449C31.1247 24.2337 30.919 24.4828 30.782 24.7701C30.5141 25.3483 30.3823 25.9802 30.3966 26.6173C30.3755 28.0636 30.6577 29.4984 31.2252 30.829C31.7926 32.1595 32.6325 33.3564 33.6909 34.3423C33.8683 33.8746 33.5761 33.3697 33.3451 32.9223C33.1114 32.4696 32.967 31.8385 33.3584 31.5125C33.794 31.1497 34.4918 31.5015 35.0069 31.2649C35.1717 31.1702 35.3105 31.0362 35.4109 30.8748C35.5113 30.7134 35.5701 30.5297 35.5822 30.34C35.6321 29.9641 35.58 29.582 35.6036 29.2035C35.6269 28.8306 35.7233 28.4658 35.8875 28.1301C36.0517 27.7945 36.2804 27.4944 36.5605 27.2471C36.8406 26.9998 37.1667 26.8101 37.5201 26.6889C37.8736 26.5676 38.2474 26.5172 38.6203 26.5404C38.6289 26.541 38.6375 26.5415 38.6461 26.5421C39.8185 26.6259 40.9564 27.4272 42.0847 27.0976C42.6144 26.9428 43.0661 26.5488 43.6139 26.4826C44.2205 26.4092 44.7912 26.7516 45.3063 27.0804C45.4935 26.2855 45.5174 25.4608 45.3765 24.6564C45.2357 23.8519 44.933 23.0845 44.4869 22.4004V22.4004Z" fill="#21BDE9"/>
<path d="M80.4037 149.366L78.6547 146.555L78.3053 148.161C78.2441 148.443 78.1828 148.729 78.1261 149.012C77.6293 148.588 77.1008 148.195 76.5836 147.819C74.9956 146.666 73.4084 145.512 71.8219 144.357L72.3187 147.238C72.625 149.012 72.9449 150.823 73.7025 152.445C73.7865 152.629 73.8772 152.81 73.9748 152.987H81.3565C81.4159 152.823 81.457 152.653 81.479 152.479C81.4809 152.468 81.4816 152.456 81.4813 152.445C81.597 151.345 80.989 150.308 80.4037 149.366Z" fill="#F0F0F0"/>
<path d="M88.9925 153.264L17.453 153.333C17.3816 153.333 17.3132 153.304 17.2629 153.254C17.2125 153.203 17.1842 153.135 17.1842 153.063C17.1842 152.992 17.2125 152.923 17.2629 152.873C17.3132 152.822 17.3816 152.793 17.453 152.793L88.9925 152.723C89.064 152.724 89.1323 152.752 89.1827 152.803C89.233 152.854 89.2613 152.922 89.2613 152.993C89.2613 153.065 89.233 153.133 89.1827 153.184C89.1323 153.235 89.064 153.263 88.9925 153.264V153.264Z" fill="#CACACA"/>
<path d="M162.94 63.8789C162.924 71.8212 159.938 79.4704 154.57 85.3227C149.201 91.1749 141.838 94.807 133.927 95.5047C126.017 96.2025 118.132 93.9155 111.822 89.0933C105.512 84.2711 101.234 77.2626 99.8287 69.4457C98.4234 61.6287 99.9927 53.5687 104.228 46.8503C108.463 40.1319 115.058 35.241 122.716 33.1392C130.374 31.0374 138.541 31.8767 145.612 35.4921C152.683 39.1076 158.145 45.2376 160.926 52.677C160.995 52.8638 161.063 53.0506 161.129 53.2392V53.241C161.422 54.0701 161.681 54.9147 161.904 55.7746C162.594 58.4208 162.942 61.1443 162.94 63.8789V63.8789Z" fill="white"/>
<path d="M127.416 42.2715C125.976 41.4932 124.379 41.0539 122.744 40.987C121.11 40.9201 119.481 41.2275 117.984 41.8856C116.665 42.4596 115.276 43.4893 114.836 45.3488C116.616 44.2985 118.919 45.9579 119.377 48.6198L119.27 48.6493C119.028 50.493 119.568 52.5004 120.613 53.6436C120.691 53.1278 120.882 52.6357 121.174 52.2032C121.465 51.7706 121.85 51.4085 122.299 51.143C123.067 50.6382 123.916 50.2714 124.502 49.4036C125.197 48.3748 125.374 46.8713 125.65 45.4996C125.926 44.128 126.449 42.6537 127.416 42.2715Z" fill="#21BDE9"/>
<path d="M117.456 57.9612C116.963 58.7014 116.305 59.1658 115.714 59.744C115.032 60.3643 114.585 61.2006 114.448 62.1121C114.373 62.7562 114.489 63.4109 114.473 64.0622C114.457 64.7133 114.24 65.4464 113.797 65.6083C113.097 65.8609 112.564 64.5621 111.845 64.4713C111.274 64.4002 110.76 65.2987 110.925 66.078C111.091 66.8573 111.868 67.2024 112.315 66.6936C112.719 67.3714 112.434 68.6009 111.827 68.8091C111.763 69.2361 111.699 69.6613 111.637 70.0883C110.103 69.0154 108.554 67.9248 107.25 66.3537C105.8 64.6213 104.9 62.4949 104.667 60.2475C104.498 58.4416 104.749 56.376 103.92 54.9864C103.256 53.8744 102.118 53.6289 101.093 53.6983C100.906 53.7107 100.718 53.7321 100.531 53.7552C101.135 51.94 101.903 50.1833 102.824 48.5065C103.033 48.417 103.226 48.2965 103.399 48.1489C104.352 47.3394 104.776 45.7007 105.549 44.5674C105.599 44.4944 105.651 44.4232 105.704 44.3539C106.496 43.3201 107.556 42.7881 108.581 42.2935C110.849 41.1922 113.183 40.0766 115.577 40.2297L114.896 40.2955C114.101 42.5231 113.305 44.7506 112.509 46.9782C112.388 47.3198 112.265 47.662 112.142 48.0048C111.69 49.2716 111.224 50.6202 111.294 52.0383C111.334 52.878 111.626 53.7748 112.181 54.063C112.699 54.3299 113.265 54.0025 113.764 53.6787C113.976 53.5435 114.186 53.4082 114.398 53.2712C115.157 52.7819 115.999 52.2802 116.801 52.6076C117.536 52.9065 118.078 53.9046 118.182 54.981C118.276 56.0274 118.021 57.0756 117.456 57.9612Z" fill="#21BDE9"/>
<path d="M121.974 73.1694C119.755 71.8032 117.537 70.437 115.318 69.0709L115.356 68.9739C113.976 69.4993 113.404 71.9516 113.632 73.957C113.86 75.9624 114.633 77.7552 115.023 79.7092C115.55 82.3833 115.351 85.1495 114.447 87.7208C117.365 84.4471 119.946 80.889 122.154 77.1001C122.462 76.6226 122.697 76.1015 122.851 75.5542C123.014 74.9709 122.956 74.3481 122.688 73.805C122.506 73.537 122.261 73.3186 121.974 73.1694Z" fill="#21BDE9"/>
<path d="M113.218 48.3147C112.957 48.8742 112.917 49.5112 113.105 50.099C113.324 50.5725 113.721 50.9403 114.21 51.1224L115.436 51.7301C115.844 51.9323 116.283 52.1365 116.699 51.9701C117.201 51.7695 117.548 50.9833 117.458 50.2534C117.363 49.4767 116.873 48.9424 116.42 48.4874C115.787 47.8508 115.153 47.2141 114.52 46.5774L114.163 47.0148C113.777 47.3915 113.457 47.8311 113.218 48.3147V48.3147Z" fill="#21BDE9"/>
<path d="M156.368 56.6179C156.92 56.7478 157.471 56.8777 158.023 57.0076C157.927 58.8704 157.003 60.5945 155.765 61.219C155.249 61.4787 154.675 61.5748 154.248 62.0605C153.862 62.5018 153.666 63.1885 153.486 63.8451C153.172 64.9909 152.857 66.1367 152.542 67.2825C152.204 68.5172 151.77 69.889 150.891 70.3338C150.137 70.7163 149.274 70.2484 148.694 69.4638C148.114 68.6792 147.76 67.6241 147.417 66.5957C147.438 67.7166 146.917 68.8162 146.179 69.2058C145.439 69.5954 144.538 69.2432 144.044 68.3731C143.688 67.7486 143.54 66.9248 143.192 66.2915C142.843 65.6581 142.112 65.2951 141.731 65.8894C141.48 66.2844 141.512 66.8893 141.388 67.391C141.325 67.7241 141.16 68.0294 140.916 68.2644C140.672 68.4994 140.36 68.6525 140.025 68.7023C139.717 68.6952 139.413 68.6255 139.133 68.4973C138.852 68.3692 138.601 68.1852 138.394 67.9568C137.305 66.8423 136.595 65.4118 136.368 63.87C136.213 63.1307 136.233 62.3657 136.425 61.6353C136.643 60.9432 137.172 60.4094 137.697 60.5411C138.042 59.8116 137.36 58.8437 136.747 58.9291C136.131 59.0145 135.649 59.6746 135.144 60.1817C134.64 60.6887 133.936 61.057 133.429 60.5535C133.44 60.7377 133.378 60.9188 133.256 61.0571C133.134 61.1953 132.962 61.2793 132.777 61.2907C132.759 61.2918 132.741 61.2922 132.723 61.2919C132.386 61.1951 132.072 61.0291 131.803 60.8044C130.641 60.0802 129.167 60.5606 128.341 61.9306C128.857 59.7351 129.613 57.2157 131.198 56.6997C131.846 56.488 132.552 56.6624 133.164 56.2959C134.247 55.6465 134.466 53.1929 133.53 52.1806C133.65 53.1378 133.626 54.2551 133.121 54.9099C132.616 55.5647 131.556 55.1376 131.62 54.1697C131.605 54.3059 131.548 54.434 131.457 54.5357C131.365 54.6374 131.244 54.7074 131.11 54.7359C130.976 54.7643 130.836 54.7496 130.711 54.694C130.586 54.6383 130.482 54.5445 130.414 54.4259C130.077 53.9136 130.106 53.0755 130.344 52.4635C130.59 51.9091 130.942 51.4086 131.381 50.9903C132.226 50.0847 133.084 49.1684 134.062 48.5991C135.042 48.0297 136.174 47.8376 137.156 48.4034C137.674 48.7022 138.129 49.2004 138.657 49.4638C138.781 49.5408 138.92 49.5926 139.064 49.6163C139.208 49.64 139.355 49.635 139.498 49.6017C139.64 49.5684 139.774 49.5073 139.893 49.4221C140.012 49.3369 140.112 49.2291 140.189 49.1049C140.195 49.0953 140.201 49.0856 140.207 49.0759C140.6 48.3855 140.415 47.3607 140.561 46.4978C140.822 44.973 142.347 44.2596 143.192 45.2666C142.56 45.1047 141.907 45.852 141.829 46.7576C141.749 47.6632 142.206 48.5777 142.818 48.8517C143.846 49.3072 144.853 48.1614 145.631 47.101C146.442 45.9907 147.254 44.8811 148.068 43.7721C148.198 43.5833 148.344 43.4059 148.504 43.2419C148.758 42.9935 149.098 42.8512 149.454 42.844C149.81 42.8367 150.155 42.965 150.42 43.2028C151.241 43.8735 151.627 45.2488 152.302 46.1954C153.28 47.5707 154.744 47.9052 156.107 48.1721C157.123 48.3696 158.139 48.5682 159.156 48.7681C159.834 50.0295 160.425 51.3354 160.926 52.677C159.061 53.5275 157.479 54.8953 156.368 56.6179Z" fill="#21BDE9"/>
<path d="M161.904 55.7746C161.696 56.389 161.582 57.0315 161.566 57.6801C160.695 56.6161 160.556 54.6217 161.129 53.241C161.422 54.0701 161.681 54.9146 161.904 55.7746Z" fill="#21BDE9"/>
<path d="M159.652 78.0254C158.89 79.5731 158.004 81.0565 157.002 82.4609C156.361 82.1869 155.673 82.6762 155.073 83.1352C154.447 83.6156 153.695 84.0835 153.052 83.6458C152.396 83.1975 152.184 81.9432 152.392 80.9486C152.632 80.0311 153.05 79.17 153.623 78.415C154.157 77.6179 154.728 76.7905 155.47 76.481C156.214 76.1714 157.169 76.6091 157.386 77.6659L157.912 77.6481C157.617 77.2425 157.772 76.4027 158.169 76.255C158.626 76.0824 159.023 76.7105 159.293 77.2656C159.414 77.5165 159.537 77.7692 159.652 78.0254Z" fill="#21BDE9"/>
<path d="M139.485 70.5101C138.353 70.5813 137.457 69.1878 136.861 67.8168C136.265 66.4459 135.722 64.8782 134.701 64.1803C134.117 63.7816 133.452 63.7269 132.819 63.5337C132.46 63.443 132.128 63.2681 131.85 63.0233C131.572 62.7786 131.356 62.4712 131.221 62.1265L130.503 61.8365C129.499 62.3386 128.579 62.9944 127.777 63.7804C126.861 64.754 126.29 66.0019 126.153 67.3319C126.016 68.7692 126.522 70.3719 127.468 70.9118C128.216 71.3385 129.087 71.0695 129.844 71.4601C130.79 71.9481 131.352 73.3656 131.565 74.7652C131.777 76.1648 131.723 77.6193 131.876 79.0348C132.028 80.4503 132.447 81.9232 133.315 82.6486C134.401 83.5563 135.994 82.802 136.482 81.1496C136.721 80.3391 136.712 79.4245 136.891 78.5832C137.206 77.1015 138.055 76.0022 138.729 74.7868C139.403 73.5714 139.933 71.9206 139.485 70.5101Z" fill="#21BDE9"/>
<path d="M128.301 55.9506C128.407 56.0478 128.505 56.1524 128.596 56.2636C128.69 56.4254 128.738 56.6098 128.734 56.7969C128.731 56.984 128.677 57.1667 128.578 57.3252C128.714 57.3175 128.847 57.2815 128.969 57.2196C129.091 57.1578 129.198 57.0713 129.285 56.9657C129.492 56.7304 129.673 56.4744 129.827 56.2018C129.9 56.1084 129.951 56.0007 129.979 55.8858C130.007 55.7709 130.009 55.6514 129.987 55.5354C129.934 55.3827 129.807 55.3176 129.719 55.2029C129.596 54.9785 129.512 54.7348 129.471 54.4823C129.421 54.2457 129.307 54.0274 129.141 53.8521C128.975 53.6767 128.763 53.5513 128.529 53.4898L128.586 53.5006C128.489 53.5579 128.413 53.644 128.368 53.7468C128.323 53.8496 128.311 53.9639 128.334 54.0738C128.368 54.2958 128.511 54.4802 128.496 54.7066C128.476 55.0322 128.151 55.185 128.131 55.5107C128.127 55.674 128.189 55.8321 128.301 55.9506V55.9506Z" fill="#21BDE9"/>
<path d="M126.362 50.4173L126.367 50.4163C126.402 50.3845 126.434 50.3501 126.464 50.3134L126.362 50.4173Z" fill="#21BDE9"/>
<path d="M126.701 51.9457C126.837 51.8263 126.938 51.672 126.992 51.4994C127.046 51.3268 127.052 51.1427 127.009 50.9671C126.926 50.5968 126.635 50.3479 126.367 50.4163C126.289 50.4952 126.192 50.5531 126.086 50.5844C125.98 50.6157 125.867 50.6195 125.759 50.5953C125.593 50.5526 125.411 50.4425 125.267 50.5676C125.185 50.661 125.127 50.7735 125.099 50.8949C125.046 51.0585 124.993 51.222 124.939 51.3856C124.914 51.4441 124.908 51.5091 124.921 51.5715C124.931 51.5965 124.947 51.6185 124.968 51.6353C124.989 51.6521 125.015 51.6632 125.041 51.6675C125.361 51.7618 125.681 51.856 126 51.9502C126.11 52.001 126.23 52.0268 126.351 52.0261C126.472 52.0253 126.592 51.9978 126.701 51.9457V51.9457Z" fill="#21BDE9"/>
<path d="M150.831 73.0469C150.683 72.8049 150.536 72.563 150.388 72.3211C150.243 72.0409 150.044 71.7917 149.804 71.5876C149.752 71.5439 149.692 71.5109 149.627 71.4906C149.562 71.4702 149.494 71.4627 149.426 71.4687C149.358 71.4747 149.292 71.494 149.232 71.5254C149.172 71.5568 149.118 71.5998 149.075 71.652L149.067 71.6614L149.085 71.7996C149.481 72.2238 149.75 72.7498 149.864 73.3188C149.897 73.566 149.886 73.8219 149.915 74.0702C149.918 74.1854 149.944 74.2988 149.991 74.404C150.038 74.5091 150.105 74.604 150.189 74.6832C150.421 74.8386 150.695 74.6094 150.86 74.3297C151.008 74.1 151.075 73.8272 151.049 73.5551C151.012 73.3726 150.938 73.1996 150.831 73.0469V73.0469Z" fill="#21BDE9"/>
<path d="M153.149 73.3617C153.177 73.1352 153.159 72.9054 153.095 72.6862C153.084 72.3898 153.163 72.0969 153.32 71.8456C153.477 71.6085 153.596 71.3484 153.672 71.0748C153.704 70.9501 153.698 70.8186 153.655 70.6973C153.606 70.5874 153.488 70.5373 153.42 70.6243L153.565 70.718C153.369 70.6829 153.167 70.6927 152.975 70.7466C152.866 70.7885 152.768 70.8562 152.69 70.944C152.612 71.0318 152.557 71.137 152.528 71.2508C152.504 71.4282 152.465 71.6032 152.411 71.7739C152.324 71.9523 152.156 72.0116 152.051 72.1681C151.979 72.3068 151.942 72.4613 151.945 72.6176C151.947 72.7738 151.989 72.927 152.065 73.0633C152.198 73.2862 152.409 73.4519 152.656 73.5281C152.834 73.5918 153.068 73.5952 153.149 73.3617Z" fill="#21BDE9"/>
<path d="M157.277 74.6072C157.341 74.7743 157.427 74.9322 157.532 75.0767C157.73 75.2758 157.998 75.1534 158.238 75.1051C158.456 75.0707 158.678 75.0959 158.883 75.1779C159.087 75.2599 159.266 75.3957 159.399 75.5708C159.306 75.1071 159.103 74.6725 158.808 74.3034C158.512 73.9344 158.132 73.6417 157.7 73.45C157.138 73.2555 156.546 73.163 155.952 73.1766L155.85 73.2026C156.109 73.9557 156.921 73.9389 157.277 74.6072Z" fill="#21BDE9"/>
<path d="M139.795 76.1476L139.796 76.1508L139.826 76.0939L139.795 76.1476Z" fill="#21BDE9"/>
<path d="M139.169 77.3597C139.032 77.6077 138.915 77.8657 138.817 78.1315C138.689 78.5621 138.603 79.0046 138.563 79.4522C138.531 79.7067 138.521 80.0318 138.681 80.1558C138.726 80.1862 138.782 80.1988 138.836 80.1914C138.89 80.184 138.94 80.1571 138.976 80.1156C139.065 80.0218 139.137 79.9141 139.191 79.7968C139.504 79.257 139.748 78.6795 139.915 78.0782C140.09 77.4403 140.048 76.7625 139.796 76.1508C139.587 76.5538 139.378 76.9568 139.169 77.3597Z" fill="#21BDE9"/>
<path d="M133.128 45.0643C133.227 45.1616 133.353 45.2276 133.49 45.2542C133.626 45.2809 133.768 45.267 133.896 45.2143C134.163 45.0978 134.407 44.9362 134.619 44.7367C134.795 44.607 134.943 44.4446 135.057 44.2586C135.12 44.1475 135.16 44.025 135.176 43.8982C135.191 43.7715 135.181 43.6429 135.147 43.52C135.098 43.4022 135.02 43.2988 134.92 43.2196C134.82 43.1405 134.701 43.0881 134.575 43.0676C134.22 42.9623 133.866 42.8571 133.511 42.7519L133.768 42.5206C133.503 42.3788 133.211 42.6419 133.046 42.9675C132.94 43.1802 132.867 43.4073 132.827 43.6416C132.771 43.8863 132.769 44.1404 132.821 44.3861C132.873 44.6318 132.978 44.8632 133.128 45.0643V45.0643Z" fill="#21BDE9"/>
<path d="M139.392 42.9613C139.492 43.0715 139.63 43.1396 139.778 43.1517C139.926 43.1637 140.074 43.1189 140.19 43.0263C140.291 42.951 140.374 42.8554 140.435 42.7457C140.496 42.636 140.533 42.5148 140.544 42.3898C140.569 42.1107 140.431 41.8005 140.234 41.7764L140.279 41.5151C139.899 41.4465 139.432 41.4328 139.229 41.8939C139.16 42.0705 139.139 42.262 139.167 42.4493C139.196 42.6367 139.273 42.8132 139.392 42.9613V42.9613Z" fill="#21BDE9"/>
<g opacity="0.35">
<path opacity="0.35" d="M199.452 65.4567C201.547 64.5431 197.298 64.0113 192.477 63.8364C187.657 63.6615 181.826 63.6712 178.745 63.1738C175.766 62.6928 175.985 61.8375 175.735 61.0625C175.484 60.2876 174.339 59.493 169.69 59.3207C163.897 59.1061 154.344 59.9324 149.97 59.4363C145.889 58.9734 148.315 57.5213 142.364 57.4657C138.966 57.434 134.589 57.9127 130.808 58.0282C128.127 58.1445 125.442 58.0045 122.789 57.6101C120.946 57.3081 119.662 56.9253 117.588 56.6585C112.143 55.9582 101.489 56.1936 91.9796 57.0911C82.4706 57.9887 74.3196 59.4596 69.7227 60.9164C65.1258 62.3733 63.8558 63.8077 64.9266 65.024C65.6104 65.8007 67.3601 66.527 71.6045 66.8391C79.5433 67.4229 93.6778 66.418 101.881 66.9492C106.453 67.2452 108.482 67.9791 112.493 68.3807C116.803 68.8122 123.112 68.835 129.311 68.8248C142.217 68.8035 155.454 68.6709 168.951 68.4276C174.589 68.3261 180.496 68.194 186.495 67.7098C192.494 67.2257 198.612 66.2916 199.878 65.4159" fill="white"/>
</g>
<path d="M163.028 105.809C160.098 105.809 156.888 105.699 153.396 105.477C135.336 104.33 111.942 100.342 87.5238 94.248C63.1059 88.154 40.5812 80.6816 24.0992 73.2079C16.0703 69.567 9.90818 66.1207 5.78419 62.9645C1.41794 59.6231 -0.491911 56.7106 0.107449 54.3081C1.27527 49.6277 11.6159 48.6037 20.085 48.5689L20.0878 49.2496C8.45757 49.2973 1.59629 51.1524 0.767853 54.473C-0.28743 58.7022 8.319 65.3047 24.3802 72.5879C40.826 80.0453 63.3093 87.5033 87.6886 93.5878C112.068 99.6721 135.419 103.653 153.439 104.798C171.038 105.916 181.738 104.131 182.793 99.9021C183.669 96.3906 177.893 91.2179 166.53 85.3363L166.843 84.7319C175.099 89.0055 184.684 95.135 183.453 100.067C182.854 102.469 179.8 104.143 174.376 105.041C171.284 105.553 167.486 105.809 163.028 105.809Z" fill="#21BDE9"/>
<path d="M51.2678 106.696C43.1921 106.696 35.6843 106.419 28.9632 105.859C20.178 105.128 13.2163 103.953 8.27187 102.366C3.03688 100.686 0.2596 98.5846 0.0171288 96.1203C-0.455404 91.3198 8.94014 86.8804 16.9052 84.0016L17.1365 84.6419C6.19841 88.5952 0.35919 92.6479 0.694366 96.0538C1.12126 100.392 11.4454 103.718 29.0196 105.181C47.0147 106.679 70.6962 106.148 95.7022 103.686C120.708 101.224 144.039 97.1273 161.397 92.1496C178.348 87.2883 187.826 82.0123 187.399 77.6745C187.045 74.0729 179.867 71.1417 167.188 69.4206L167.28 68.7461C176.492 69.9967 187.579 72.5491 188.076 77.6078C188.319 80.0721 186.004 82.6746 181.198 85.3432C176.657 87.8638 170.058 90.3739 161.584 92.8039C144.188 97.7927 120.814 101.898 95.7688 104.363C80.0572 105.91 64.8613 106.696 51.2678 106.696Z" fill="#21BDE9"/>
<path d="M99.3268 121.072C101.517 121.072 103.293 119.296 103.293 117.106C103.293 114.915 101.517 113.139 99.3268 113.139C97.1364 113.139 95.3607 114.915 95.3607 117.106C95.3607 119.296 97.1364 121.072 99.3268 121.072Z" fill="#21BDE9"/>
<path d="M21.2275 97.6533C23.4179 97.6533 25.1936 95.8773 25.1936 93.6866C25.1936 91.4959 23.4179 89.7199 21.2275 89.7199C19.0371 89.7199 17.2615 91.4959 17.2615 93.6866C17.2615 95.8773 19.0371 97.6533 21.2275 97.6533Z" fill="#E6E6E6"/>
<path d="M94.0468 36.8519C95.3876 36.8519 96.4746 35.7648 96.4746 34.4237C96.4746 33.0826 95.3876 31.9955 94.0468 31.9955C92.7059 31.9955 91.6189 33.0826 91.6189 34.4237C91.6189 35.7648 92.7059 36.8519 94.0468 36.8519Z" fill="#FF6584"/>
<path d="M79.3574 55.1822C81.5478 55.1822 83.3235 53.4062 83.3235 51.2155C83.3235 49.0248 81.5478 47.2488 79.3574 47.2488C77.167 47.2488 75.3913 49.0248 75.3913 51.2155C75.3913 53.4062 77.167 55.1822 79.3574 55.1822Z" fill="#E6E6E6"/>
</g>
<defs>
<clipPath id="clip0_30_88">
<rect width="200" height="133.333" fill="white" transform="translate(0 20)"/>
</clipPath>
</defs>
</svg>
